<?xml version="1.0" encoding="utf-8"?>
<!-- Generator: Adobe Illustrator 19.1.1, SVG Export Plug-In . SVG Version: 6.00 Build 0)  -->
<svg version="1.1" xmlns="http://www.w3.org/2000/svg" xmlns:xlink="http://www.w3.org/1999/xlink" x="0px" y="0px"
	 viewBox="0 0 450 325" style="enable-background:new 0 0 450 325;" xml:space="preserve">
<style type="text/css">
	.st0{fill:#B0D8FF;stroke:#3AA2EF;stroke-miterlimit:10;}
	.st1{fill:none;stroke:#3AA2EF;stroke-width:8;stroke-miterlimit:10;}
	.st2{fill:#3AA2EF;}
	.st3{fill:#FFFFFF;}
	.st4{fill:#1384EE;}
	.st5{fill:#F2F2F2;stroke:#C9C9C9;stroke-miterlimit:10;}
	.st6{fill:#E65B00;}
	.st7{fill:#B3B3B3;}
	.st8{fill:none;stroke:#333333;stroke-width:3;stroke-linecap:round;stroke-miterlimit:10;}
	.st9{fill:#333333;}
	.st10{fill:none;}
	.st11{fill:none;stroke:#B3B3B3;stroke-width:3;stroke-linecap:round;stroke-miterlimit:10;}
</style>
<g id="Dependencies">
	<g id="postal.js">
		<path class="st0" d="M174.5,188.1h-65c-1.7,0-3-1.3-3-3V164c0-1.7,1.3-3,3-3h65c1.7,0,3,1.3,3,3v21.1
			C177.5,186.8,176.2,188.1,174.5,188.1z"/>
		<g>
			<path d="M113,174.4c0-1.1,0-2-0.1-2.8h1.4l0.1,1.5h0c0.6-1,1.6-1.7,3-1.7c2.1,0,3.6,1.7,3.6,4.3c0,3.1-1.9,4.6-3.9,4.6
				c-1.1,0-2.1-0.5-2.6-1.3h0v4.6H113V174.4z M114.5,176.7c0,0.2,0,0.4,0.1,0.6c0.3,1.1,1.2,1.8,2.3,1.8c1.6,0,2.6-1.3,2.6-3.3
				c0-1.7-0.9-3.2-2.5-3.2c-1.1,0-2,0.8-2.3,1.9c-0.1,0.2-0.1,0.4-0.1,0.6V176.7z"/>
			<path d="M130.7,175.8c0,3.1-2.2,4.5-4.2,4.5c-2.3,0-4.1-1.7-4.1-4.4c0-2.8,1.9-4.5,4.2-4.5C129,171.5,130.7,173.2,130.7,175.8z
				 M123.9,175.9c0,1.9,1.1,3.3,2.6,3.3c1.5,0,2.6-1.4,2.6-3.3c0-1.4-0.7-3.3-2.5-3.3C124.7,172.6,123.9,174.3,123.9,175.9z"/>
			<path d="M132.4,178.6c0.5,0.3,1.3,0.6,2,0.6c1.1,0,1.7-0.6,1.7-1.3c0-0.7-0.4-1.1-1.6-1.6c-1.5-0.5-2.2-1.4-2.2-2.4
				c0-1.4,1.1-2.5,2.9-2.5c0.9,0,1.6,0.2,2.1,0.5l-0.4,1.1c-0.3-0.2-0.9-0.5-1.7-0.5c-0.9,0-1.4,0.5-1.4,1.2c0,0.7,0.5,1,1.6,1.4
				c1.5,0.6,2.2,1.3,2.2,2.6c0,1.5-1.2,2.5-3.2,2.5c-0.9,0-1.8-0.2-2.4-0.6L132.4,178.6z"/>
			<path d="M141.4,169.2v2.4h2.2v1.2h-2.2v4.6c0,1.1,0.3,1.7,1.2,1.7c0.4,0,0.7-0.1,0.9-0.1l0.1,1.2c-0.3,0.1-0.8,0.2-1.4,0.2
				c-0.7,0-1.3-0.2-1.7-0.7c-0.4-0.5-0.6-1.2-0.6-2.2v-4.6h-1.3v-1.2h1.3v-2L141.4,169.2z"/>
			<path d="M150.1,180.2l-0.1-1.1h-0.1c-0.5,0.7-1.4,1.3-2.6,1.3c-1.7,0-2.6-1.2-2.6-2.4c0-2.1,1.8-3.2,5.1-3.2v-0.2
				c0-0.7-0.2-2-1.9-2c-0.8,0-1.6,0.2-2.2,0.6l-0.4-1c0.7-0.5,1.7-0.8,2.8-0.8c2.6,0,3.2,1.8,3.2,3.5v3.2c0,0.7,0,1.5,0.1,2H150.1z
				 M149.8,175.8c-1.7,0-3.6,0.3-3.6,1.9c0,1,0.7,1.5,1.5,1.5c1.1,0,1.8-0.7,2.1-1.4c0.1-0.2,0.1-0.3,0.1-0.5V175.8z"/>
			<path d="M153.8,167.7h1.5v12.5h-1.5V167.7z"/>
			<path d="M157.4,179.2c0-0.7,0.4-1.1,1.1-1.1c0.6,0,1,0.5,1,1.1c0,0.6-0.4,1.1-1.1,1.1C157.9,180.3,157.4,179.9,157.4,179.2z"/>
			<path d="M159.4,182.6c0.7-0.1,1.3-0.2,1.7-0.7c0.4-0.5,0.6-1.2,0.6-3.2v-7.1h1.5v7.7c0,1.7-0.3,2.7-1,3.5c-0.7,0.7-1.8,1-2.6,1
				L159.4,182.6z M163.4,169.3c0,0.5-0.4,0.9-1,0.9c-0.6,0-0.9-0.4-0.9-0.9c0-0.5,0.4-1,1-1C163,168.3,163.4,168.7,163.4,169.3z"/>
			<path d="M165.5,178.6c0.5,0.3,1.3,0.6,2,0.6c1.1,0,1.7-0.6,1.7-1.3c0-0.7-0.4-1.1-1.6-1.6c-1.5-0.5-2.2-1.4-2.2-2.4
				c0-1.4,1.1-2.5,2.9-2.5c0.9,0,1.6,0.2,2.1,0.5l-0.4,1.1c-0.3-0.2-0.9-0.5-1.7-0.5c-0.9,0-1.4,0.5-1.4,1.2c0,0.7,0.5,1,1.6,1.4
				c1.5,0.6,2.2,1.3,2.2,2.6c0,1.5-1.2,2.5-3.2,2.5c-0.9,0-1.8-0.2-2.4-0.6L165.5,178.6z"/>
		</g>
		<g>
			<g>
				<line class="st1" x1="177" y1="175" x2="200" y2="175"/>
				<g>
					<circle class="st2" cx="200.5" cy="175.4" r="6.6"/>
				</g>
			</g>
		</g>
	</g>
	<g id="lodash">
		<path class="st0" d="M174.5,223.3h-65c-1.7,0-3-1.3-3-3v-21.1c0-1.7,1.3-3,3-3h65c1.7,0,3,1.3,3,3v21.1
			C177.5,221.9,176.2,223.3,174.5,223.3z"/>
		<g>
			<path d="M118.6,202.8h1.5v12.5h-1.5V202.8z"/>
			<path d="M130.4,211c0,3.1-2.2,4.5-4.2,4.5c-2.3,0-4.1-1.7-4.1-4.4c0-2.8,1.9-4.5,4.2-4.5C128.7,206.6,130.4,208.4,130.4,211z
				 M123.6,211c0,1.9,1.1,3.3,2.6,3.3c1.5,0,2.6-1.4,2.6-3.3c0-1.4-0.7-3.3-2.5-3.3C124.4,207.7,123.6,209.4,123.6,211z"/>
			<path d="M139.7,202.8v10.3c0,0.8,0,1.6,0.1,2.2h-1.4l-0.1-1.5h0c-0.5,0.9-1.5,1.7-2.9,1.7c-2.1,0-3.6-1.7-3.6-4.3
				c0-2.8,1.7-4.6,3.8-4.6c1.3,0,2.2,0.6,2.6,1.3h0v-5.1H139.7z M138.1,210.2c0-0.2,0-0.5-0.1-0.6c-0.2-1-1.1-1.8-2.2-1.8
				c-1.6,0-2.5,1.4-2.5,3.3c0,1.7,0.8,3.1,2.5,3.1c1,0,2-0.7,2.3-1.8c0.1-0.2,0.1-0.4,0.1-0.7V210.2z"/>
			<path d="M147,215.3l-0.1-1.1h-0.1c-0.5,0.7-1.4,1.3-2.6,1.3c-1.7,0-2.6-1.2-2.6-2.4c0-2.1,1.8-3.2,5.1-3.2v-0.2
				c0-0.7-0.2-2-1.9-2c-0.8,0-1.6,0.2-2.2,0.6l-0.4-1c0.7-0.5,1.7-0.8,2.8-0.8c2.6,0,3.2,1.8,3.2,3.5v3.2c0,0.7,0,1.5,0.1,2H147z
				 M146.7,210.9c-1.7,0-3.6,0.3-3.6,1.9c0,1,0.7,1.5,1.5,1.5c1.1,0,1.8-0.7,2.1-1.4c0.1-0.2,0.1-0.3,0.1-0.5V210.9z"/>
			<path d="M150.5,213.7c0.5,0.3,1.3,0.6,2,0.6c1.1,0,1.7-0.6,1.7-1.3c0-0.7-0.4-1.1-1.6-1.6c-1.5-0.5-2.2-1.4-2.2-2.4
				c0-1.4,1.1-2.5,2.9-2.5c0.9,0,1.6,0.2,2.1,0.5l-0.4,1.1c-0.3-0.2-0.9-0.5-1.7-0.5c-0.9,0-1.4,0.5-1.4,1.2c0,0.7,0.5,1,1.6,1.4
				c1.5,0.6,2.2,1.3,2.2,2.6c0,1.5-1.2,2.5-3.2,2.5c-0.9,0-1.8-0.2-2.4-0.6L150.5,213.7z"/>
			<path d="M157.7,202.8h1.5v5.3h0c0.2-0.4,0.6-0.8,1.1-1.1c0.5-0.3,1-0.4,1.6-0.4c1.1,0,3,0.7,3,3.6v5.1h-1.5v-4.9
				c0-1.4-0.5-2.5-2-2.5c-1,0-1.8,0.7-2.1,1.5c-0.1,0.2-0.1,0.4-0.1,0.7v5.1h-1.5V202.8z"/>
		</g>
		<g>
			<g>
				<line class="st1" x1="177" y1="210" x2="200" y2="210"/>
				<g>
					<circle class="st2" cx="200.5" cy="209.7" r="6.6"/>
				</g>
			</g>
		</g>
	</g>
	<g id="riveter">
		<path class="st0" d="M174.5,258.8h-65c-1.7,0-3-1.3-3-3v-21.1c0-1.7,1.3-3,3-3h65c1.7,0,3,1.3,3,3v21.1
			C177.5,257.4,176.2,258.8,174.5,258.8z"/>
		<g>
			<path d="M118.6,244.9c0-1,0-1.9-0.1-2.7h1.4l0.1,1.7h0.1c0.4-1.1,1.3-1.9,2.4-1.9c0.2,0,0.3,0,0.4,0.1v1.5
				c-0.2,0-0.3-0.1-0.5-0.1c-1.1,0-1.9,0.8-2.1,2c0,0.2-0.1,0.5-0.1,0.7v4.5h-1.5V244.9z"/>
			<path d="M126.1,239.9c0,0.5-0.4,0.9-1,0.9c-0.5,0-0.9-0.4-0.9-0.9c0-0.5,0.4-1,1-1C125.7,238.9,126.1,239.4,126.1,239.9z
				 M124.4,250.8v-8.5h1.5v8.5H124.4z"/>
			<path d="M129.1,242.3l1.7,4.8c0.3,0.8,0.5,1.5,0.7,2.2h0.1c0.2-0.7,0.4-1.4,0.7-2.2l1.7-4.8h1.6l-3.3,8.5h-1.5l-3.2-8.5H129.1z"
				/>
			<path d="M137.6,246.8c0,2.1,1.4,3,2.9,3c1.1,0,1.8-0.2,2.4-0.4l0.3,1.1c-0.5,0.2-1.5,0.5-2.8,0.5c-2.6,0-4.2-1.7-4.2-4.3
				c0-2.6,1.5-4.6,4-4.6c2.8,0,3.5,2.4,3.5,4c0,0.3,0,0.6-0.1,0.7H137.6z M142.1,245.7c0-1-0.4-2.5-2.1-2.5c-1.6,0-2.2,1.4-2.4,2.5
				H142.1z"/>
			<path d="M147.4,239.9v2.4h2.2v1.2h-2.2v4.6c0,1.1,0.3,1.7,1.2,1.7c0.4,0,0.7-0.1,0.9-0.1l0.1,1.2c-0.3,0.1-0.8,0.2-1.4,0.2
				c-0.7,0-1.3-0.2-1.7-0.7c-0.4-0.5-0.6-1.2-0.6-2.2v-4.6h-1.3v-1.2h1.3v-2L147.4,239.9z"/>
			<path d="M152.1,246.8c0,2.1,1.4,3,2.9,3c1.1,0,1.8-0.2,2.4-0.4l0.3,1.1c-0.5,0.2-1.5,0.5-2.8,0.5c-2.6,0-4.2-1.7-4.2-4.3
				c0-2.6,1.5-4.6,4-4.6c2.8,0,3.5,2.4,3.5,4c0,0.3,0,0.6-0.1,0.7H152.1z M156.6,245.7c0-1-0.4-2.5-2.1-2.5c-1.6,0-2.2,1.4-2.4,2.5
				H156.6z"/>
			<path d="M160.1,244.9c0-1,0-1.9-0.1-2.7h1.4l0.1,1.7h0.1c0.4-1.1,1.3-1.9,2.4-1.9c0.2,0,0.3,0,0.4,0.1v1.5
				c-0.2,0-0.3-0.1-0.5-0.1c-1.1,0-1.9,0.8-2.1,2c0,0.2-0.1,0.5-0.1,0.7v4.5h-1.5V244.9z"/>
		</g>
		<g>
			<g>
				<line class="st1" x1="177" y1="246" x2="200" y2="246"/>
				<g>
					<circle class="st2" cx="200.5" cy="245.6" r="6.6"/>
				</g>
			</g>
		</g>
	</g>
	<g id="reqwest__x2F__jquery">
		<path class="st0" d="M174.5,297.8h-131c-1.7,0-3-1.3-3-3v-21.1c0-1.7,1.3-3,3-3h131c1.7,0,3,1.3,3,3v21.1
			C177.5,296.4,176.2,297.8,174.5,297.8z"/>
		<g>
			<path d="M47.5,292.3c0.7-0.1,1.3-0.2,1.7-0.7c0.4-0.5,0.6-1.2,0.6-3.2v-7.1h1.5v7.7c0,1.7-0.3,2.7-1,3.5c-0.7,0.7-1.8,1-2.6,1
				L47.5,292.3z M51.5,278.9c0,0.5-0.4,0.9-1,0.9c-0.6,0-0.9-0.4-0.9-0.9c0-0.5,0.4-1,1-1C51.1,277.9,51.5,278.4,51.5,278.9z"/>
			<path d="M63.6,291.5c-1.6-0.4-3.2-0.9-4.5-1.4c-0.2-0.1-0.5-0.2-0.7-0.2c-2.8-0.1-5.2-2.2-5.2-6c0-3.8,2.3-6.2,5.5-6.2
				c3.2,0,5.3,2.5,5.3,6c0,3-1.4,5-3.4,5.7v0.1c1.2,0.3,2.5,0.6,3.5,0.8L63.6,291.5z M62.4,283.8c0-2.4-1.2-4.8-3.7-4.8
				c-2.6,0-3.8,2.4-3.8,5c0,2.5,1.4,4.8,3.8,4.8C61,288.7,62.4,286.5,62.4,283.8z"/>
			<path d="M73.1,287.5c0,0.9,0,1.7,0.1,2.3h-1.4l-0.1-1.4h0c-0.4,0.7-1.3,1.6-2.8,1.6c-1.3,0-2.9-0.7-2.9-3.7v-5h1.5v4.7
				c0,1.6,0.5,2.7,1.9,2.7c1,0,1.8-0.7,2-1.4c0.1-0.2,0.1-0.5,0.1-0.8v-5.2h1.5V287.5z"/>
			<path d="M76.5,285.8c0,2.1,1.4,3,2.9,3c1.1,0,1.8-0.2,2.4-0.4l0.3,1.1c-0.5,0.2-1.5,0.5-2.8,0.5c-2.6,0-4.2-1.7-4.2-4.3
				c0-2.6,1.5-4.6,4-4.6c2.8,0,3.5,2.4,3.5,4c0,0.3,0,0.6-0.1,0.7H76.5z M81,284.7c0-1-0.4-2.5-2.1-2.5c-1.6,0-2.2,1.4-2.4,2.5H81z"
				/>
			<path d="M84.4,283.9c0-1,0-1.9-0.1-2.7h1.4l0.1,1.7h0.1c0.4-1.1,1.3-1.9,2.4-1.9c0.2,0,0.3,0,0.4,0.1v1.5c-0.2,0-0.3-0.1-0.5-0.1
				c-1.1,0-1.9,0.8-2.1,2c0,0.2-0.1,0.5-0.1,0.7v4.5h-1.5V283.9z"/>
			<path d="M91.2,281.3l1.9,5c0.2,0.6,0.4,1.2,0.5,1.7h0c0.2-0.5,0.3-1.2,0.5-1.8l1.7-5h1.6l-2.3,6.1c-1.1,2.9-1.9,4.4-2.9,5.3
				c-0.8,0.7-1.5,0.9-1.9,1l-0.4-1.3c0.4-0.1,0.9-0.4,1.4-0.8c0.4-0.3,0.9-0.9,1.3-1.7c0.1-0.2,0.1-0.3,0.1-0.4s0-0.2-0.1-0.4
				l-3.1-7.8H91.2z"/>
			<path d="M101.3,290.5l4.9-12.7h1.2l-4.9,12.7H101.3z"/>
			<path d="M112.4,283.9c0-1,0-1.9-0.1-2.7h1.4l0.1,1.7h0.1c0.4-1.1,1.3-1.9,2.4-1.9c0.2,0,0.3,0,0.4,0.1v1.5
				c-0.2,0-0.3-0.1-0.5-0.1c-1.1,0-1.9,0.8-2.1,2c0,0.2-0.1,0.5-0.1,0.7v4.5h-1.5V283.9z"/>
			<path d="M118.8,285.8c0,2.1,1.4,3,2.9,3c1.1,0,1.8-0.2,2.4-0.4l0.3,1.1c-0.5,0.2-1.5,0.5-2.8,0.5c-2.6,0-4.2-1.7-4.2-4.3
				c0-2.6,1.5-4.6,4-4.6c2.8,0,3.5,2.4,3.5,4c0,0.3,0,0.6-0.1,0.7H118.8z M123.3,284.7c0-1-0.4-2.5-2.1-2.5c-1.6,0-2.2,1.4-2.4,2.5
				H123.3z"/>
			<path d="M132.5,288.5L132.5,288.5c-0.5,0.8-1.4,1.5-2.8,1.5c-2,0-3.6-1.7-3.6-4.3c0-3.2,2.1-4.6,3.8-4.6c1.3,0,2.2,0.6,2.6,1.5h0
				l0.1-1.3h1.5c0,0.7-0.1,1.5-0.1,2.3v9.6h-1.5V288.5z M132.5,284.7c0-0.2,0-0.5-0.1-0.7c-0.2-0.9-1.1-1.8-2.2-1.8
				c-1.6,0-2.6,1.4-2.6,3.3c0,1.7,0.8,3.2,2.5,3.2c1,0,1.9-0.6,2.2-1.7c0.1-0.2,0.1-0.5,0.1-0.7V284.7z"/>
			<path d="M137.2,281.3l1.1,4.3c0.2,0.9,0.5,1.8,0.6,2.7h0.1c0.2-0.9,0.5-1.8,0.8-2.7l1.4-4.3h1.3l1.3,4.3c0.3,1,0.6,1.9,0.8,2.8
				h0.1c0.1-0.9,0.4-1.8,0.6-2.8l1.2-4.3h1.5l-2.7,8.5h-1.4l-1.3-4.1c-0.3-0.9-0.5-1.8-0.8-2.8h0c-0.2,1-0.5,1.9-0.8,2.8l-1.4,4
				h-1.4l-2.6-8.5H137.2z"/>
			<path d="M150.2,285.8c0,2.1,1.4,3,2.9,3c1.1,0,1.8-0.2,2.4-0.4l0.3,1.1c-0.5,0.2-1.5,0.5-2.8,0.5c-2.6,0-4.2-1.7-4.2-4.3
				c0-2.6,1.5-4.6,4-4.6c2.8,0,3.5,2.4,3.5,4c0,0.3,0,0.6-0.1,0.7H150.2z M154.8,284.7c0-1-0.4-2.5-2.1-2.5c-1.6,0-2.2,1.4-2.4,2.5
				H154.8z"/>
			<path d="M158,288.2c0.5,0.3,1.3,0.6,2,0.6c1.1,0,1.7-0.6,1.7-1.3c0-0.7-0.4-1.1-1.6-1.6c-1.5-0.5-2.2-1.4-2.2-2.4
				c0-1.4,1.1-2.5,2.9-2.5c0.9,0,1.6,0.2,2.1,0.5l-0.4,1.1c-0.3-0.2-0.9-0.5-1.7-0.5c-0.9,0-1.4,0.5-1.4,1.2c0,0.7,0.5,1,1.6,1.4
				c1.5,0.6,2.2,1.3,2.2,2.6c0,1.5-1.2,2.5-3.2,2.5c-0.9,0-1.8-0.2-2.4-0.6L158,288.2z"/>
			<path d="M167,278.9v2.4h2.2v1.2H167v4.6c0,1.1,0.3,1.7,1.2,1.7c0.4,0,0.7-0.1,0.9-0.1l0.1,1.2c-0.3,0.1-0.8,0.2-1.4,0.2
				c-0.7,0-1.3-0.2-1.7-0.7c-0.4-0.5-0.6-1.2-0.6-2.2v-4.6h-1.3v-1.2h1.3v-2L167,278.9z"/>
		</g>
		<g>
			<g>
				<line class="st1" x1="177" y1="285" x2="200" y2="285"/>
				<g>
					<circle class="st2" cx="200.5" cy="284.6" r="6.6"/>
				</g>
			</g>
		</g>
	</g>
</g>
<g id="FootworkJS">
	<g id="Background_2_">
		
			<image style="overflow:visible;opacity:0.75;" width="260" height="324" xlink:href="C0948B11.png"  transform="matrix(1 0 0 1 191 -2)">
		</image>
		<g>
			<path class="st3" d="M440,307.5c0,0.8-0.7,1.5-1.5,1.5h-235c-0.8,0-1.5-0.7-1.5-1.5V7.5c0-0.8,0.7-1.5,1.5-1.5h235
				c0.8,0,1.5,0.7,1.5,1.5V307.5z"/>
			<path class="st2" d="M438,7v300H203V7H438 M438.5,4h-235c-1.7,0-3.5,1.3-3.5,3v299.5c0,1.7,1.8,3.5,3.5,3.5h235
				c1.7,0,2.5-1.8,2.5-3.5V7c0-1.7-1.1-3-2.8-3H438.5z"/>
		</g>
	</g>
	<g id="footwork.js">
		<g id="Foot">
			<path class="st4" d="M426,33c0,1.5-0.6,3.2-1.7,4.6c-1.5,2-3.5,3.5-5.8,4.6c-1.2,0.6-2.4,1.1-3.7,1.7c-2.3,1.1-4.1,2.7-5.8,4.6
				c-1.2,1.4-2.9,2.1-4.9,2.1c-0.9,0-1.7-0.3-2.4-0.8c-1.1-0.8-2-1.7-2.4-2.7c-0.6-1.1-0.6-2.3-0.2-3.4c0.8-2,2-3.5,3.8-4.4
				c1.1-0.6,2.3-0.6,3.5-0.9c1.2-0.2,2.4-0.5,3.5-1.1c1.7-1.2,2.7-2.9,2.9-5c0.2-1.5-0.3-2.9-0.5-4.3c-0.2-1.5-0.3-3.1,0.5-4.4
				c0.5-0.9,1.1-1.7,2-2.1c1.1-0.6,2.1-0.6,3.4-0.2c1.5,0.6,2.6,1.7,3.7,2.9c1.4,1.5,2.6,3.2,3.4,5.2C425.7,30.4,426,31.7,426,33z"
				/>
			<path class="st4" d="M417.6,16.4c0-2,1.4-4.1,3.2-4.7c1.2-0.5,2.4,0.2,2.7,1.5c0.5,2-1.1,4.9-3.1,5.6
				C418.8,19.3,417.6,18.2,417.6,16.4z"/>
			<path class="st4" d="M427,19c-0.2,1.1-0.8,2.1-2.1,2.7c-1.2,0.6-2.3,0-2.4-1.4c-0.2-1.4,1.1-3.1,2.3-3.5
				C426.3,16.6,427.2,17.3,427,19z"/>
			<path class="st4" d="M429.5,22.4c0,1.2-1.1,2.6-2.3,2.7c-0.9,0.2-1.5-0.3-1.5-1.2c0-1.2,1.1-2.4,2.3-2.7
				C428.9,21,429.5,21.4,429.5,22.4z"/>
			<path class="st4" d="M428.4,28c-0.8,0-1.2-0.6-1.1-1.2c0.2-0.9,1.2-1.7,2.1-1.7c0.8,0,1.2,0.6,1.1,1.4
				C430.2,27.1,429.3,28,428.4,28z"/>
			<path class="st4" d="M427.8,30c0-0.8,0.6-1.7,1.4-1.7c0.6-0.2,1.1,0.3,1.1,0.9c0,0.8-0.6,1.5-1.4,1.7
				C428.3,31.1,427.8,30.6,427.8,30z"/>
		</g>
		<g>
			<path d="M215.2,43.5V27.2h-2.7v-2.6h2.7v-0.9c0-2.7,0.6-5.1,2.2-6.6c1.3-1.2,3-1.8,4.6-1.8c1.2,0,2.3,0.3,2.9,0.5l-0.5,2.7
				c-0.5-0.2-1.2-0.4-2.2-0.4c-2.9,0-3.7,2.6-3.7,5.5v1h4.6v2.6h-4.6v16.3H215.2z"/>
			<path d="M242.8,33.9c0,7-4.8,10-9.4,10c-5.1,0-9-3.7-9-9.7c0-6.3,4.1-10,9.4-10C239.1,24.2,242.8,28.1,242.8,33.9z M227.8,34.1
				c0,4.1,2.4,7.3,5.7,7.3c3.3,0,5.7-3.1,5.7-7.3c0-3.2-1.6-7.3-5.7-7.3C229.6,26.8,227.8,30.5,227.8,34.1z"/>
			<path d="M264.2,33.9c0,7-4.8,10-9.4,10c-5.1,0-9-3.7-9-9.7c0-6.3,4.1-10,9.4-10C260.6,24.2,264.2,28.1,264.2,33.9z M249.2,34.1
				c0,4.1,2.4,7.3,5.7,7.3c3.3,0,5.7-3.1,5.7-7.3c0-3.2-1.6-7.3-5.7-7.3C251,26.8,249.2,30.5,249.2,34.1z"/>
			<path d="M272.7,19.2v5.4h4.9v2.6h-4.9v10.2c0,2.3,0.7,3.7,2.6,3.7c0.9,0,1.6-0.1,2-0.2l0.2,2.6c-0.7,0.3-1.7,0.5-3,0.5
				c-1.6,0-2.9-0.5-3.7-1.4c-1-1-1.3-2.7-1.3-4.9V27.2h-2.9v-2.6h2.9v-4.5L272.7,19.2z"/>
			<path d="M283.2,24.6l2.5,9.6c0.5,2.1,1.1,4.1,1.4,6h0.1c0.4-1.9,1.1-3.9,1.7-6l3.1-9.6h2.9l2.9,9.4c0.7,2.3,1.2,4.3,1.7,6.2h0.1
				c0.3-1.9,0.8-3.9,1.4-6.1l2.7-9.5h3.4L301,43.5h-3.1l-2.9-9c-0.7-2.1-1.2-4-1.7-6.2h-0.1c-0.5,2.3-1.1,4.2-1.7,6.2l-3,9h-3.1
				l-5.7-18.9H283.2z"/>
			<path d="M327.2,33.9c0,7-4.8,10-9.4,10c-5.1,0-9-3.7-9-9.7c0-6.3,4.1-10,9.4-10C323.5,24.2,327.2,28.1,327.2,33.9z M312.2,34.1
				c0,4.1,2.4,7.3,5.7,7.3c3.3,0,5.7-3.1,5.7-7.3c0-3.2-1.6-7.3-5.7-7.3C314,26.8,312.2,30.5,312.2,34.1z"/>
			<path d="M331.5,30.5c0-2.2,0-4.1-0.2-5.9h3l0.1,3.7h0.2c0.9-2.5,2.9-4.1,5.2-4.1c0.4,0,0.7,0,1,0.1v3.2c-0.4-0.1-0.7-0.1-1.2-0.1
				c-2.4,0-4.1,1.8-4.6,4.4c-0.1,0.5-0.2,1-0.2,1.6v10.1h-3.4V30.5z"/>
			<path d="M347.8,33.3L347.8,33.3c0.5-0.7,1.2-1.5,1.8-2.1l5.5-6.5h4.1l-7.3,7.8l8.3,11.1h-4.2l-6.5-9l-1.8,2v7.1h-3.4V15.8h3.4
				V33.3z"/>
			<path d="M362.5,41.5c0-1.4,1-2.5,2.3-2.5s2.3,1,2.3,2.5c0,1.4-0.9,2.5-2.3,2.5C363.4,43.9,362.5,42.9,362.5,41.5z"/>
			<path d="M366.8,49c1.6-0.1,2.9-0.5,3.7-1.4c0.9-1.1,1.3-2.6,1.3-7.1V24.6h3.4v17.1c0,3.7-0.6,6-2.3,7.8c-1.5,1.5-4,2.1-5.9,2.1
				L366.8,49z M375.6,19.3c0,1.1-0.8,2.1-2.1,2.1c-1.3,0-2.1-1-2.1-2.1c0-1.2,0.9-2.1,2.2-2.1C374.8,17.2,375.6,18.1,375.6,19.3z"/>
			<path d="M380.4,40c1,0.7,2.8,1.4,4.5,1.4c2.5,0,3.7-1.2,3.7-2.8c0-1.6-1-2.5-3.5-3.5c-3.4-1.2-5-3.1-5-5.3c0-3,2.5-5.5,6.5-5.5
				c1.9,0,3.6,0.5,4.6,1.2l-0.9,2.5c-0.7-0.5-2.1-1.1-3.9-1.1c-2,0-3.2,1.2-3.2,2.6c0,1.6,1.1,2.3,3.6,3.2c3.3,1.2,5,2.9,5,5.7
				c0,3.3-2.6,5.7-7.1,5.7c-2.1,0-4-0.5-5.3-1.3L380.4,40z"/>
		</g>
	</g>
</g>
<g id="KnockoutJS">
	<path id="Background" class="st5" d="M177.5,150.5c0,1.7-1.3,3-3,3H8.5c-1.7,0-3-1.3-3-3v-134c0-1.7,1.3-3,3-3h166c1.7,0,3,1.3,3,3
		V150.5z"/>
	<g>
		<path class="st6" d="M14.9,24.1h4.3v8.5h0.1c0.4-0.7,0.9-1.4,1.3-2.1l4.4-6.4h5.4L24,32.4l6.7,11.1h-5.1l-4.7-8.3l-1.7,2v6.3h-4.3
			V24.1z"/>
		<path class="st6" d="M32.4,33.9c0-1.7-0.1-3.2-0.1-4.5H36l0.2,1.9h0.1c0.6-0.9,2-2.2,4.3-2.2c2.9,0,5,1.9,5,6v8.3h-4.4v-7.8
			c0-1.8-0.6-3-2.2-3c-1.2,0-1.9,0.8-2.2,1.6c-0.1,0.3-0.2,0.7-0.2,1.1v8.1h-4.4V33.9z"/>
		<path class="st6" d="M63,36.3c0,5.1-3.6,7.5-7.4,7.5c-4.1,0-7.2-2.7-7.2-7.2c0-4.5,3-7.4,7.5-7.4C60.1,29.1,63,32.1,63,36.3z
			 M52.9,36.4c0,2.4,1,4.2,2.9,4.2c1.7,0,2.8-1.7,2.8-4.2c0-2.1-0.8-4.2-2.8-4.2C53.6,32.2,52.9,34.4,52.9,36.4z"/>
		<path class="st6" d="M76.3,43.1c-0.8,0.3-2.2,0.6-3.9,0.6c-4.5,0-7.4-2.7-7.4-7.2c0-4.1,2.8-7.4,8-7.4c1.1,0,2.4,0.2,3.3,0.5
			l-0.7,3.2c-0.5-0.2-1.3-0.4-2.4-0.4c-2.3,0-3.8,1.6-3.8,3.9c0,2.6,1.7,3.9,3.8,3.9c1,0,1.8-0.2,2.5-0.4L76.3,43.1z"/>
		<path class="st6" d="M83,35.3L83,35.3c0.4-0.6,0.7-1.1,1.1-1.7l2.8-4.2h5.2l-5,5.7l5.7,8.3h-5.4l-3.4-5.8L83,39.1v4.4h-4.4V23.1
			H83V35.3z"/>
		<path class="st6" d="M107.6,36.3c0,5.1-3.6,7.5-7.4,7.5c-4.1,0-7.2-2.7-7.2-7.2c0-4.5,3-7.4,7.5-7.4
			C104.8,29.1,107.6,32.1,107.6,36.3z M97.5,36.4c0,2.4,1,4.2,2.9,4.2c1.7,0,2.8-1.7,2.8-4.2c0-2.1-0.8-4.2-2.8-4.2
			C98.3,32.2,97.5,34.4,97.5,36.4z"/>
		<path class="st6" d="M123.5,38.9c0,1.8,0.1,3.3,0.1,4.5h-3.8l-0.2-2h-0.1c-0.5,0.9-1.9,2.3-4.4,2.3c-2.8,0-4.9-1.8-4.9-6.1v-8.2
			h4.4V37c0,2,0.7,3.3,2.2,3.3c1.2,0,1.9-0.8,2.2-1.5c0.1-0.3,0.1-0.6,0.1-0.9v-8.3h4.4V38.9z"/>
		<path class="st6" d="M131.9,25.4v4h3.1v3.2h-3.1v5.1c0,1.7,0.4,2.5,1.7,2.5c0.5,0,1-0.1,1.3-0.1l0,3.3c-0.6,0.2-1.6,0.4-2.8,0.4
			c-1.4,0-2.6-0.5-3.3-1.2c-0.8-0.8-1.2-2.2-1.2-4.2v-5.7h-1.9v-3.2h1.9v-3L131.9,25.4z"/>
		<path class="st6" d="M141.4,24.1h4.4v12.2c0,5.5-2.6,7.4-6.9,7.4c-1,0-2.3-0.2-3.2-0.5l0.5-3.5c0.6,0.2,1.4,0.3,2.2,0.3
			c1.8,0,3-0.8,3-3.8V24.1z"/>
		<path class="st6" d="M149.6,38.9c1.2,0.6,3,1.2,4.8,1.2c2,0,3.1-0.8,3.1-2.1c0-1.2-0.9-1.9-3.2-2.7c-3.2-1.1-5.3-2.9-5.3-5.7
			c0-3.3,2.7-5.8,7.3-5.8c2.2,0,3.8,0.5,4.9,1l-1,3.5c-0.8-0.4-2.1-0.9-4-0.9s-2.8,0.9-2.8,1.9c0,1.2,1.1,1.8,3.6,2.7
			c3.4,1.3,5,3,5,5.8c0,3.2-2.5,6-7.8,6c-2.2,0-4.4-0.6-5.5-1.2L149.6,38.9z"/>
	</g>
	<g>
		<path d="M14.9,65.3V53.8h1.4v6.5l3.3-3.4h1.8l-3.2,3.1l3.5,5.2H20L17.2,61l-1,1v3.3H14.9z"/>
		<path d="M22.3,61.1c0-1.5,0.4-2.7,1.3-3.4c0.7-0.6,1.6-0.9,2.6-0.9c1.1,0,2.1,0.4,2.8,1.1c0.7,0.7,1.1,1.8,1.1,3.1
			c0,1.1-0.2,1.9-0.5,2.5c-0.3,0.6-0.8,1.1-1.4,1.4c-0.6,0.3-1.3,0.5-2,0.5c-1.2,0-2.1-0.4-2.8-1.1C22.7,63.6,22.3,62.5,22.3,61.1z
			 M23.8,61.1c0,1.1,0.2,1.9,0.7,2.4c0.5,0.5,1,0.8,1.8,0.8c0.7,0,1.3-0.3,1.7-0.8c0.5-0.5,0.7-1.3,0.7-2.4c0-1-0.2-1.8-0.7-2.3
			c-0.5-0.5-1-0.8-1.7-0.8c-0.7,0-1.3,0.3-1.8,0.8C24,59.3,23.8,60.1,23.8,61.1z"/>
		<path d="M32.1,65.3v-1.6h1.6v1.6H32.1z"/>
		<path d="M35.7,61.1c0-1.5,0.4-2.7,1.3-3.4c0.7-0.6,1.6-0.9,2.6-0.9c1.1,0,2.1,0.4,2.8,1.1c0.7,0.7,1.1,1.8,1.1,3.1
			c0,1.1-0.2,1.9-0.5,2.5c-0.3,0.6-0.8,1.1-1.4,1.4c-0.6,0.3-1.3,0.5-2,0.5c-1.2,0-2.1-0.4-2.8-1.1C36,63.6,35.7,62.5,35.7,61.1z
			 M37.1,61.1c0,1.1,0.2,1.9,0.7,2.4c0.5,0.5,1,0.8,1.8,0.8c0.7,0,1.3-0.3,1.7-0.8c0.5-0.5,0.7-1.3,0.7-2.4c0-1-0.2-1.8-0.7-2.3
			c-0.5-0.5-1-0.8-1.7-0.8c-0.7,0-1.3,0.3-1.8,0.8C37.3,59.3,37.1,60.1,37.1,61.1z"/>
		<path d="M46.4,65.3h-1.3V53.8h1.4v4.1c0.6-0.7,1.4-1.1,2.3-1.1c0.5,0,1,0.1,1.4,0.3c0.5,0.2,0.8,0.5,1.1,0.9
			c0.3,0.4,0.5,0.8,0.7,1.3c0.2,0.5,0.3,1.1,0.3,1.7c0,1.4-0.4,2.5-1.1,3.3c-0.7,0.8-1.5,1.2-2.5,1.2c-1,0-1.7-0.4-2.3-1.2V65.3z
			 M46.4,61.1c0,1,0.1,1.7,0.4,2.2c0.4,0.7,1,1.1,1.8,1.1c0.6,0,1.1-0.3,1.6-0.8c0.4-0.5,0.7-1.3,0.7-2.4c0-1.1-0.2-1.9-0.6-2.4
			S49.2,58,48.6,58c-0.6,0-1.1,0.3-1.6,0.8C46.6,59.3,46.4,60.1,46.4,61.1z"/>
		<path d="M53.4,62.8l1.4-0.2c0.1,0.6,0.3,1,0.7,1.3c0.4,0.3,0.9,0.4,1.5,0.4c0.6,0,1.1-0.1,1.4-0.4c0.3-0.3,0.5-0.6,0.5-0.9
			c0-0.3-0.1-0.6-0.4-0.8c-0.2-0.1-0.7-0.3-1.4-0.5c-1-0.3-1.7-0.5-2.1-0.7c-0.4-0.2-0.7-0.5-0.9-0.8c-0.2-0.3-0.3-0.7-0.3-1.1
			c0-0.4,0.1-0.7,0.3-1c0.2-0.3,0.4-0.6,0.7-0.8c0.2-0.2,0.5-0.3,0.9-0.4c0.4-0.1,0.8-0.2,1.2-0.2c0.7,0,1.2,0.1,1.7,0.3
			s0.9,0.4,1.1,0.8s0.4,0.7,0.5,1.3l-1.4,0.2c-0.1-0.4-0.2-0.8-0.5-1c-0.3-0.2-0.7-0.4-1.3-0.4c-0.6,0-1.1,0.1-1.4,0.3
			C55.2,58.5,55,58.7,55,59c0,0.2,0.1,0.3,0.2,0.5c0.1,0.2,0.3,0.3,0.5,0.4c0.1,0.1,0.6,0.2,1.2,0.4c1,0.3,1.7,0.5,2.1,0.7
			c0.4,0.2,0.7,0.4,0.9,0.7c0.2,0.3,0.3,0.7,0.3,1.2c0,0.5-0.1,0.9-0.4,1.3s-0.7,0.7-1.2,1s-1.1,0.3-1.8,0.3c-1.1,0-1.9-0.2-2.5-0.7
			C53.9,64.4,53.6,63.7,53.4,62.8z"/>
		<path d="M67.7,62.6l1.5,0.2c-0.2,0.8-0.7,1.5-1.3,2c-0.6,0.5-1.4,0.7-2.4,0.7c-1.2,0-2.2-0.4-2.9-1.1c-0.7-0.7-1.1-1.8-1.1-3.1
			c0-1.4,0.4-2.5,1.1-3.3c0.7-0.8,1.7-1.2,2.8-1.2c1.1,0,2,0.4,2.7,1.1c0.7,0.8,1.1,1.8,1.1,3.2c0,0.1,0,0.2,0,0.4H63
			c0.1,0.9,0.3,1.6,0.8,2.1c0.5,0.5,1,0.7,1.7,0.7c0.5,0,1-0.1,1.3-0.4C67.2,63.6,67.4,63.2,67.7,62.6z M63,60.3h4.6
			c-0.1-0.7-0.2-1.2-0.5-1.6c-0.4-0.5-1-0.8-1.7-0.8c-0.6,0-1.2,0.2-1.6,0.6C63.3,59,63.1,59.6,63,60.3z"/>
		<path d="M70.9,65.3V57h1.3v1.3c0.3-0.6,0.6-1,0.9-1.2s0.6-0.3,0.9-0.3c0.5,0,1,0.2,1.4,0.5l-0.5,1.3c-0.3-0.2-0.7-0.3-1-0.3
			c-0.3,0-0.6,0.1-0.8,0.3c-0.2,0.2-0.4,0.4-0.5,0.8c-0.2,0.5-0.2,1-0.2,1.6v4.3H70.9z"/>
		<path d="M78.5,65.3L75.4,57h1.5l1.8,5c0.2,0.5,0.4,1.1,0.5,1.7c0.1-0.4,0.3-1,0.5-1.6l1.8-5.1H83l-3.1,8.3H78.5z"/>
		<path d="M89.6,64.3c-0.5,0.4-1,0.8-1.5,0.9c-0.5,0.2-1,0.3-1.6,0.3c-0.9,0-1.6-0.2-2.1-0.7c-0.5-0.4-0.7-1-0.7-1.7
			c0-0.4,0.1-0.8,0.3-1.1c0.2-0.3,0.4-0.6,0.7-0.8c0.3-0.2,0.6-0.4,1-0.5c0.3-0.1,0.7-0.1,1.3-0.2c1.1-0.1,2-0.3,2.5-0.5
			c0-0.2,0-0.3,0-0.4c0-0.6-0.1-1-0.4-1.2c-0.4-0.3-0.9-0.5-1.6-0.5c-0.7,0-1.1,0.1-1.5,0.3c-0.3,0.2-0.5,0.6-0.7,1.2L84,59.4
			c0.1-0.6,0.3-1.1,0.6-1.4c0.3-0.4,0.7-0.6,1.2-0.8c0.5-0.2,1.2-0.3,1.9-0.3c0.7,0,1.3,0.1,1.7,0.3c0.4,0.2,0.8,0.4,1,0.6
			c0.2,0.3,0.4,0.6,0.4,1c0,0.2,0.1,0.7,0.1,1.3v1.9c0,1.3,0,2.1,0.1,2.5c0.1,0.3,0.2,0.7,0.4,1h-1.5C89.8,65,89.7,64.7,89.6,64.3z
			 M89.5,61.1c-0.5,0.2-1.3,0.4-2.3,0.5c-0.6,0.1-1,0.2-1.2,0.3c-0.2,0.1-0.4,0.3-0.6,0.5c-0.1,0.2-0.2,0.4-0.2,0.7
			c0,0.4,0.1,0.7,0.4,0.9c0.3,0.3,0.7,0.4,1.2,0.4c0.5,0,1-0.1,1.4-0.4c0.4-0.2,0.7-0.6,0.9-1c0.2-0.3,0.2-0.8,0.2-1.4V61.1z"/>
		<path d="M94.4,65.3h-1.3V53.8h1.4v4.1c0.6-0.7,1.4-1.1,2.3-1.1c0.5,0,1,0.1,1.4,0.3c0.5,0.2,0.8,0.5,1.1,0.9
			c0.3,0.4,0.5,0.8,0.7,1.3c0.2,0.5,0.3,1.1,0.3,1.7c0,1.4-0.4,2.5-1.1,3.3c-0.7,0.8-1.5,1.2-2.5,1.2c-1,0-1.7-0.4-2.3-1.2V65.3z
			 M94.4,61.1c0,1,0.1,1.7,0.4,2.2c0.4,0.7,1,1.1,1.8,1.1c0.6,0,1.1-0.3,1.6-0.8c0.4-0.5,0.7-1.3,0.7-2.4c0-1.1-0.2-1.9-0.6-2.4
			S97.3,58,96.7,58c-0.6,0-1.1,0.3-1.6,0.8C94.6,59.3,94.4,60.1,94.4,61.1z"/>
		<path d="M102,65.3V53.8h1.4v11.5H102z"/>
		<path d="M111.2,62.6l1.5,0.2c-0.2,0.8-0.7,1.5-1.3,2c-0.6,0.5-1.4,0.7-2.4,0.7c-1.2,0-2.2-0.4-2.9-1.1c-0.7-0.7-1.1-1.8-1.1-3.1
			c0-1.4,0.4-2.5,1.1-3.3c0.7-0.8,1.7-1.2,2.8-1.2c1.1,0,2,0.4,2.7,1.1c0.7,0.8,1.1,1.8,1.1,3.2c0,0.1,0,0.2,0,0.4h-6.2
			c0.1,0.9,0.3,1.6,0.8,2.1c0.5,0.5,1,0.7,1.7,0.7c0.5,0,1-0.1,1.3-0.4C110.7,63.6,111,63.2,111.2,62.6z M106.6,60.3h4.6
			c-0.1-0.7-0.2-1.2-0.5-1.6c-0.4-0.5-1-0.8-1.7-0.8c-0.6,0-1.2,0.2-1.6,0.6C106.9,59,106.7,59.6,106.6,60.3z"/>
		<path d="M14.9,84.5V73h1.4v6.5l3.3-3.4h1.8l-3.2,3.1l3.5,5.2H20l-2.7-4.2l-1,1v3.3H14.9z"/>
		<path d="M22.3,80.3c0-1.5,0.4-2.7,1.3-3.4c0.7-0.6,1.6-0.9,2.6-0.9c1.1,0,2.1,0.4,2.8,1.1c0.7,0.7,1.1,1.8,1.1,3.1
			c0,1.1-0.2,1.9-0.5,2.5c-0.3,0.6-0.8,1.1-1.4,1.4c-0.6,0.3-1.3,0.5-2,0.5c-1.2,0-2.1-0.4-2.8-1.1C22.7,82.8,22.3,81.7,22.3,80.3z
			 M23.8,80.3c0,1.1,0.2,1.9,0.7,2.4c0.5,0.5,1,0.8,1.8,0.8c0.7,0,1.3-0.3,1.7-0.8c0.5-0.5,0.7-1.3,0.7-2.4c0-1-0.2-1.8-0.7-2.3
			c-0.5-0.5-1-0.8-1.7-0.8c-0.7,0-1.3,0.3-1.8,0.8C24,78.5,23.8,79.3,23.8,80.3z"/>
		<path d="M32.1,84.5v-1.6h1.6v1.6H32.1z"/>
		<path d="M41.6,81.4l1.4,0.2c-0.2,1-0.5,1.7-1.2,2.2c-0.6,0.5-1.4,0.8-2.3,0.8c-1.1,0-2-0.4-2.7-1.1c-0.7-0.7-1-1.8-1-3.2
			c0-0.9,0.1-1.7,0.4-2.4s0.7-1.2,1.4-1.5c0.6-0.3,1.3-0.5,2-0.5c0.9,0,1.6,0.2,2.2,0.7c0.6,0.5,0.9,1.1,1.1,1.9l-1.4,0.2
			c-0.1-0.6-0.4-1-0.7-1.3c-0.3-0.3-0.7-0.4-1.2-0.4c-0.7,0-1.3,0.3-1.7,0.8c-0.4,0.5-0.7,1.3-0.7,2.4c0,1.1,0.2,1.9,0.6,2.4
			c0.4,0.5,1,0.8,1.7,0.8c0.6,0,1-0.2,1.4-0.5C41.3,82.7,41.5,82.1,41.6,81.4z"/>
		<path d="M43.7,80.3c0-1.5,0.4-2.7,1.3-3.4c0.7-0.6,1.6-0.9,2.6-0.9c1.1,0,2.1,0.4,2.8,1.1c0.7,0.7,1.1,1.8,1.1,3.1
			c0,1.1-0.2,1.9-0.5,2.5c-0.3,0.6-0.8,1.1-1.4,1.4c-0.6,0.3-1.3,0.5-2,0.5c-1.2,0-2.1-0.4-2.8-1.1C44,82.8,43.7,81.7,43.7,80.3z
			 M45.1,80.3c0,1.1,0.2,1.9,0.7,2.4c0.5,0.5,1,0.8,1.8,0.8c0.7,0,1.3-0.3,1.7-0.8c0.5-0.5,0.7-1.3,0.7-2.4c0-1-0.2-1.8-0.7-2.3
			c-0.5-0.5-1-0.8-1.7-0.8c-0.7,0-1.3,0.3-1.8,0.8C45.3,78.5,45.1,79.3,45.1,80.3z"/>
		<path d="M53.1,84.5v-8.3h1.3v1.2c0.3-0.4,0.6-0.7,1-1c0.4-0.2,0.9-0.4,1.5-0.4c0.6,0,1.1,0.1,1.5,0.4c0.4,0.3,0.7,0.6,0.8,1.1
			c0.7-1,1.5-1.5,2.6-1.5c0.8,0,1.5,0.2,1.9,0.7c0.4,0.5,0.7,1.2,0.7,2.1v5.7h-1.4v-5.2c0-0.6,0-1-0.1-1.2c-0.1-0.2-0.3-0.4-0.5-0.6
			c-0.2-0.2-0.5-0.2-0.8-0.2c-0.6,0-1.1,0.2-1.5,0.6c-0.4,0.4-0.6,1-0.6,1.9v4.8H58v-5.4c0-0.6-0.1-1.1-0.3-1.4
			c-0.2-0.3-0.6-0.5-1.1-0.5c-0.4,0-0.8,0.1-1.1,0.3c-0.3,0.2-0.6,0.5-0.7,0.9c-0.2,0.4-0.2,1-0.2,1.7v4.3H53.1z"/>
		<path d="M66.4,87.7V76.2h1.3v1.1c0.3-0.4,0.6-0.7,1-0.9c0.4-0.2,0.8-0.3,1.4-0.3c0.7,0,1.3,0.2,1.9,0.5c0.5,0.4,1,0.9,1.2,1.5
			c0.3,0.7,0.4,1.4,0.4,2.2c0,0.8-0.2,1.6-0.5,2.3s-0.7,1.2-1.3,1.6c-0.6,0.4-1.2,0.5-1.8,0.5c-0.5,0-0.9-0.1-1.3-0.3
			c-0.4-0.2-0.7-0.4-0.9-0.8v4H66.4z M67.7,80.4c0,1.1,0.2,1.9,0.6,2.4c0.4,0.5,1,0.8,1.6,0.8c0.6,0,1.2-0.3,1.6-0.8
			c0.4-0.5,0.7-1.3,0.7-2.5c0-1.1-0.2-1.8-0.7-2.4c-0.4-0.5-1-0.8-1.6-0.8c-0.6,0-1.1,0.3-1.6,0.8C67.9,78.5,67.7,79.3,67.7,80.4z"
			/>
		<path d="M80.7,84.5v-1.2c-0.6,0.9-1.5,1.4-2.6,1.4c-0.5,0-0.9-0.1-1.4-0.3c-0.4-0.2-0.7-0.4-0.9-0.7c-0.2-0.3-0.4-0.6-0.4-1
			c-0.1-0.3-0.1-0.7-0.1-1.3v-5.1h1.4v4.6c0,0.7,0,1.2,0.1,1.5c0.1,0.4,0.3,0.7,0.6,0.9c0.3,0.2,0.6,0.3,1.1,0.3s0.8-0.1,1.2-0.3
			c0.4-0.2,0.6-0.5,0.8-0.9c0.2-0.4,0.2-0.9,0.2-1.6v-4.4H82v8.3H80.7z"/>
		<path d="M87.3,83.2l0.2,1.2c-0.4,0.1-0.8,0.1-1.1,0.1c-0.5,0-0.9-0.1-1.2-0.2s-0.5-0.4-0.6-0.6c-0.1-0.3-0.2-0.8-0.2-1.7v-4.8h-1
			v-1.1h1v-2.1l1.4-0.8v2.9h1.4v1.1h-1.4v4.9c0,0.4,0,0.7,0.1,0.8c0,0.1,0.1,0.2,0.2,0.3c0.1,0.1,0.3,0.1,0.5,0.1
			C86.8,83.3,87,83.3,87.3,83.2z"/>
		<path d="M94.3,81.8l1.5,0.2c-0.2,0.8-0.7,1.5-1.3,2c-0.6,0.5-1.4,0.7-2.4,0.7c-1.2,0-2.2-0.4-2.9-1.1c-0.7-0.7-1.1-1.8-1.1-3.1
			c0-1.4,0.4-2.5,1.1-3.3c0.7-0.8,1.7-1.2,2.8-1.2c1.1,0,2,0.4,2.7,1.1c0.7,0.8,1.1,1.8,1.1,3.2c0,0.1,0,0.2,0,0.4h-6.2
			c0.1,0.9,0.3,1.6,0.8,2.1c0.5,0.5,1,0.7,1.7,0.7c0.5,0,1-0.1,1.3-0.4C93.8,82.8,94.1,82.4,94.3,81.8z M89.7,79.5h4.6
			c-0.1-0.7-0.2-1.2-0.5-1.6c-0.4-0.5-1-0.8-1.7-0.8c-0.6,0-1.2,0.2-1.6,0.6C90,78.2,89.8,78.8,89.7,79.5z"/>
		<path d="M102.9,84.5v-1c-0.5,0.8-1.3,1.2-2.3,1.2c-0.7,0-1.3-0.2-1.8-0.5s-1-0.9-1.3-1.5c-0.3-0.7-0.5-1.4-0.5-2.3
			c0-0.8,0.1-1.6,0.4-2.3c0.3-0.7,0.7-1.2,1.2-1.6c0.6-0.4,1.2-0.5,1.9-0.5c0.5,0,0.9,0.1,1.3,0.3s0.7,0.5,1,0.8V73h1.4v11.5H102.9z
			 M98.5,80.3c0,1.1,0.2,1.9,0.7,2.4c0.4,0.5,1,0.8,1.6,0.8c0.6,0,1.1-0.3,1.6-0.8c0.4-0.5,0.6-1.3,0.6-2.3c0-1.1-0.2-2-0.7-2.5
			s-1-0.8-1.6-0.8c-0.6,0-1.1,0.3-1.6,0.8C98.7,78.4,98.5,79.2,98.5,80.3z"/>
		<path class="st7" d="M14.9,103.7V92.2h1.4v6.5l3.3-3.4h1.8l-3.2,3.1l3.5,5.2H20l-2.7-4.2l-1,1v3.3H14.9z"/>
		<path class="st7" d="M22.3,99.5c0-1.5,0.4-2.7,1.3-3.4c0.7-0.6,1.6-0.9,2.6-0.9c1.1,0,2.1,0.4,2.8,1.1c0.7,0.7,1.1,1.8,1.1,3.1
			c0,1.1-0.2,1.9-0.5,2.5c-0.3,0.6-0.8,1.1-1.4,1.4c-0.6,0.3-1.3,0.5-2,0.5c-1.2,0-2.1-0.4-2.8-1.1C22.7,102,22.3,100.9,22.3,99.5z
			 M23.8,99.5c0,1.1,0.2,1.9,0.7,2.4c0.5,0.5,1,0.8,1.8,0.8c0.7,0,1.3-0.3,1.7-0.8c0.5-0.5,0.7-1.3,0.7-2.4c0-1-0.2-1.8-0.7-2.3
			c-0.5-0.5-1-0.8-1.7-0.8c-0.7,0-1.3,0.3-1.8,0.8C24,97.7,23.8,98.5,23.8,99.5z"/>
		<path class="st7" d="M32.1,103.7v-1.6h1.6v1.6H32.1z"/>
		<path class="st7" d="M41,103.7v-1.6h1.6v1.6H41z"/>
		<path class="st7" d="M45.5,103.7v-1.6h1.6v1.6H45.5z"/>
		<path class="st7" d="M49.9,103.7v-1.6h1.6v1.6H49.9z"/>
	</g>
	<g>
		<path d="M230.8,65.3v-7.2h-1.2V57h1.2v-0.9c0-0.6,0-1,0.1-1.2c0.1-0.4,0.4-0.7,0.7-0.9s0.8-0.3,1.4-0.3c0.4,0,0.8,0,1.3,0.1
			l-0.2,1.2c-0.3-0.1-0.6-0.1-0.8-0.1c-0.4,0-0.7,0.1-0.9,0.3c-0.2,0.2-0.3,0.5-0.3,1V57h1.6v1.1h-1.6v7.2H230.8z"/>
		<path d="M236.4,65.3l-2.5-8.3h1.5l1.3,4.8l0.5,1.8c0-0.1,0.2-0.7,0.4-1.7l1.3-4.9h1.4l1.2,4.8l0.4,1.6l0.5-1.6l1.4-4.8h1.4
			l-2.6,8.3h-1.5l-1.3-5l-0.3-1.4l-1.7,6.4H236.4z"/>
		<path d="M246,65.3v-1.6h1.6v1.6H246z"/>
		<path d="M249.5,61.1c0-1.5,0.4-2.7,1.3-3.4c0.7-0.6,1.6-0.9,2.6-0.9c1.1,0,2.1,0.4,2.8,1.1c0.7,0.7,1.1,1.8,1.1,3.1
			c0,1.1-0.2,1.9-0.5,2.5c-0.3,0.6-0.8,1.1-1.4,1.4s-1.3,0.5-2,0.5c-1.2,0-2.1-0.4-2.8-1.1C249.8,63.6,249.5,62.5,249.5,61.1z
			 M250.9,61.1c0,1.1,0.2,1.9,0.7,2.4c0.5,0.5,1,0.8,1.8,0.8c0.7,0,1.3-0.3,1.7-0.8s0.7-1.3,0.7-2.4c0-1-0.2-1.8-0.7-2.3
			c-0.5-0.5-1-0.8-1.7-0.8c-0.7,0-1.3,0.3-1.8,0.8C251.2,59.3,250.9,60.1,250.9,61.1z"/>
		<path d="M260.2,65.3h-1.3V53.8h1.4v4.1c0.6-0.7,1.4-1.1,2.3-1.1c0.5,0,1,0.1,1.4,0.3c0.5,0.2,0.8,0.5,1.1,0.9
			c0.3,0.4,0.5,0.8,0.7,1.3c0.2,0.5,0.3,1.1,0.3,1.7c0,1.4-0.4,2.5-1.1,3.3c-0.7,0.8-1.5,1.2-2.5,1.2c-1,0-1.7-0.4-2.3-1.2V65.3z
			 M260.2,61.1c0,1,0.1,1.7,0.4,2.2c0.4,0.7,1,1.1,1.8,1.1c0.6,0,1.1-0.3,1.6-0.8c0.4-0.5,0.7-1.3,0.7-2.4c0-1.1-0.2-1.9-0.6-2.4
			s-0.9-0.8-1.6-0.8c-0.6,0-1.1,0.3-1.6,0.8C260.4,59.3,260.2,60.1,260.2,61.1z"/>
		<path d="M267.2,62.8l1.4-0.2c0.1,0.6,0.3,1,0.7,1.3s0.9,0.4,1.5,0.4c0.6,0,1.1-0.1,1.4-0.4c0.3-0.3,0.5-0.6,0.5-0.9
			c0-0.3-0.1-0.6-0.4-0.8c-0.2-0.1-0.7-0.3-1.4-0.5c-1-0.3-1.7-0.5-2.1-0.7c-0.4-0.2-0.7-0.5-0.9-0.8s-0.3-0.7-0.3-1.1
			c0-0.4,0.1-0.7,0.3-1c0.2-0.3,0.4-0.6,0.7-0.8c0.2-0.2,0.5-0.3,0.9-0.4c0.4-0.1,0.8-0.2,1.2-0.2c0.7,0,1.2,0.1,1.7,0.3
			s0.9,0.4,1.1,0.8s0.4,0.7,0.5,1.3l-1.4,0.2c-0.1-0.4-0.2-0.8-0.5-1c-0.3-0.2-0.7-0.4-1.3-0.4c-0.6,0-1.1,0.1-1.4,0.3
			c-0.3,0.2-0.4,0.5-0.4,0.8c0,0.2,0.1,0.3,0.2,0.5c0.1,0.2,0.3,0.3,0.5,0.4c0.1,0.1,0.6,0.2,1.2,0.4c1,0.3,1.7,0.5,2.1,0.7
			c0.4,0.2,0.7,0.4,0.9,0.7c0.2,0.3,0.3,0.7,0.3,1.2c0,0.5-0.1,0.9-0.4,1.3s-0.7,0.7-1.2,1s-1.1,0.3-1.8,0.3c-1.1,0-1.9-0.2-2.5-0.7
			C267.8,64.4,267.4,63.7,267.2,62.8z"/>
		<path d="M281.5,62.6l1.5,0.2c-0.2,0.8-0.7,1.5-1.3,2s-1.4,0.7-2.4,0.7c-1.2,0-2.2-0.4-2.9-1.1c-0.7-0.7-1.1-1.8-1.1-3.1
			c0-1.4,0.4-2.5,1.1-3.3c0.7-0.8,1.7-1.2,2.8-1.2c1.1,0,2,0.4,2.7,1.1c0.7,0.8,1.1,1.8,1.1,3.2c0,0.1,0,0.2,0,0.4h-6.2
			c0.1,0.9,0.3,1.6,0.8,2.1s1,0.7,1.7,0.7c0.5,0,1-0.1,1.3-0.4C281,63.6,281.3,63.2,281.5,62.6z M276.9,60.3h4.6
			c-0.1-0.7-0.2-1.2-0.5-1.6c-0.4-0.5-1-0.8-1.7-0.8c-0.6,0-1.2,0.2-1.6,0.6C277.2,59,276.9,59.6,276.9,60.3z"/>
		<path d="M284.7,65.3V57h1.3v1.3c0.3-0.6,0.6-1,0.9-1.2s0.6-0.3,0.9-0.3c0.5,0,1,0.2,1.4,0.5l-0.5,1.3c-0.3-0.2-0.7-0.3-1-0.3
			c-0.3,0-0.6,0.1-0.8,0.3c-0.2,0.2-0.4,0.4-0.5,0.8c-0.2,0.5-0.2,1-0.2,1.6v4.3H284.7z"/>
		<path d="M292.3,65.3l-3.2-8.3h1.5l1.8,5c0.2,0.5,0.4,1.1,0.5,1.7c0.1-0.4,0.3-1,0.5-1.6l1.8-5.1h1.4l-3.1,8.3H292.3z"/>
		<path d="M303.5,64.3c-0.5,0.4-1,0.8-1.5,0.9s-1,0.3-1.6,0.3c-0.9,0-1.6-0.2-2.1-0.7s-0.7-1-0.7-1.7c0-0.4,0.1-0.8,0.3-1.1
			s0.4-0.6,0.7-0.8s0.6-0.4,1-0.5c0.3-0.1,0.7-0.1,1.3-0.2c1.1-0.1,2-0.3,2.5-0.5c0-0.2,0-0.3,0-0.4c0-0.6-0.1-1-0.4-1.2
			c-0.4-0.3-0.9-0.5-1.6-0.5c-0.7,0-1.1,0.1-1.5,0.3c-0.3,0.2-0.5,0.6-0.7,1.2l-1.4-0.2c0.1-0.6,0.3-1.1,0.6-1.4
			c0.3-0.4,0.7-0.6,1.2-0.8s1.2-0.3,1.9-0.3c0.7,0,1.3,0.1,1.7,0.3c0.4,0.2,0.8,0.4,1,0.6c0.2,0.3,0.4,0.6,0.4,1
			c0,0.2,0.1,0.7,0.1,1.3v1.9c0,1.3,0,2.1,0.1,2.5c0.1,0.3,0.2,0.7,0.4,1h-1.5C303.6,65,303.5,64.7,303.5,64.3z M303.3,61.1
			c-0.5,0.2-1.3,0.4-2.3,0.5c-0.6,0.1-1,0.2-1.2,0.3c-0.2,0.1-0.4,0.3-0.6,0.5c-0.1,0.2-0.2,0.4-0.2,0.7c0,0.4,0.1,0.7,0.4,0.9
			s0.7,0.4,1.2,0.4c0.5,0,1-0.1,1.4-0.4c0.4-0.2,0.7-0.6,0.9-1c0.2-0.3,0.2-0.8,0.2-1.4V61.1z"/>
		<path d="M308.2,65.3h-1.3V53.8h1.4v4.1c0.6-0.7,1.4-1.1,2.3-1.1c0.5,0,1,0.1,1.4,0.3c0.5,0.2,0.8,0.5,1.1,0.9
			c0.3,0.4,0.5,0.8,0.7,1.3c0.2,0.5,0.3,1.1,0.3,1.7c0,1.4-0.4,2.5-1.1,3.3c-0.7,0.8-1.5,1.2-2.5,1.2c-1,0-1.7-0.4-2.3-1.2V65.3z
			 M308.2,61.1c0,1,0.1,1.7,0.4,2.2c0.4,0.7,1,1.1,1.8,1.1c0.6,0,1.1-0.3,1.6-0.8c0.4-0.5,0.7-1.3,0.7-2.4c0-1.1-0.2-1.9-0.6-2.4
			s-0.9-0.8-1.6-0.8c-0.6,0-1.1,0.3-1.6,0.8C308.4,59.3,308.2,60.1,308.2,61.1z"/>
		<path d="M315.8,65.3V53.8h1.4v11.5H315.8z"/>
		<path d="M325.1,62.6l1.5,0.2c-0.2,0.8-0.7,1.5-1.3,2s-1.4,0.7-2.4,0.7c-1.2,0-2.2-0.4-2.9-1.1c-0.7-0.7-1.1-1.8-1.1-3.1
			c0-1.4,0.4-2.5,1.1-3.3c0.7-0.8,1.7-1.2,2.8-1.2c1.1,0,2,0.4,2.7,1.1c0.7,0.8,1.1,1.8,1.1,3.2c0,0.1,0,0.2,0,0.4h-6.2
			c0.1,0.9,0.3,1.6,0.8,2.1s1,0.7,1.7,0.7c0.5,0,1-0.1,1.3-0.4C324.6,63.6,324.9,63.2,325.1,62.6z M320.5,60.3h4.6
			c-0.1-0.7-0.2-1.2-0.5-1.6c-0.4-0.5-1-0.8-1.7-0.8c-0.6,0-1.2,0.2-1.6,0.6C320.7,59,320.5,59.6,320.5,60.3z"/>
		<path d="M230.8,84.5v-7.2h-1.2v-1.1h1.2v-0.9c0-0.6,0-1,0.1-1.2c0.1-0.4,0.4-0.7,0.7-0.9s0.8-0.3,1.4-0.3c0.4,0,0.8,0,1.3,0.1
			l-0.2,1.2c-0.3-0.1-0.6-0.1-0.8-0.1c-0.4,0-0.7,0.1-0.9,0.3c-0.2,0.2-0.3,0.5-0.3,1v0.8h1.6v1.1h-1.6v7.2H230.8z"/>
		<path d="M236.4,84.5l-2.5-8.3h1.5l1.3,4.8l0.5,1.8c0-0.1,0.2-0.7,0.4-1.7l1.3-4.9h1.4l1.2,4.8l0.4,1.6l0.5-1.6l1.4-4.8h1.4
			l-2.6,8.3h-1.5l-1.3-5l-0.3-1.4l-1.7,6.4H236.4z"/>
		<path d="M246,84.5v-1.6h1.6v1.6H246z"/>
		<path d="M255.4,81.4l1.4,0.2c-0.2,1-0.5,1.7-1.2,2.2s-1.4,0.8-2.3,0.8c-1.1,0-2-0.4-2.7-1.1s-1-1.8-1-3.2c0-0.9,0.1-1.7,0.4-2.4
			s0.7-1.2,1.4-1.5s1.3-0.5,2-0.5c0.9,0,1.6,0.2,2.2,0.7c0.6,0.5,0.9,1.1,1.1,1.9l-1.4,0.2c-0.1-0.6-0.4-1-0.7-1.3s-0.7-0.4-1.2-0.4
			c-0.7,0-1.3,0.3-1.7,0.8s-0.7,1.3-0.7,2.4c0,1.1,0.2,1.9,0.6,2.4c0.4,0.5,1,0.8,1.7,0.8c0.6,0,1-0.2,1.4-0.5
			C255.1,82.7,255.3,82.1,255.4,81.4z"/>
		<path d="M257.5,80.3c0-1.5,0.4-2.7,1.3-3.4c0.7-0.6,1.6-0.9,2.6-0.9c1.1,0,2.1,0.4,2.8,1.1c0.7,0.7,1.1,1.8,1.1,3.1
			c0,1.1-0.2,1.9-0.5,2.5c-0.3,0.6-0.8,1.1-1.4,1.4s-1.3,0.5-2,0.5c-1.2,0-2.1-0.4-2.8-1.1C257.8,82.8,257.5,81.7,257.5,80.3z
			 M258.9,80.3c0,1.1,0.2,1.9,0.7,2.4c0.5,0.5,1,0.8,1.8,0.8c0.7,0,1.3-0.3,1.7-0.8s0.7-1.3,0.7-2.4c0-1-0.2-1.8-0.7-2.3
			c-0.5-0.5-1-0.8-1.7-0.8c-0.7,0-1.3,0.3-1.8,0.8C259.2,78.5,258.9,79.3,258.9,80.3z"/>
		<path d="M266.9,84.5v-8.3h1.3v1.2c0.3-0.4,0.6-0.7,1-1c0.4-0.2,0.9-0.4,1.5-0.4c0.6,0,1.1,0.1,1.5,0.4c0.4,0.3,0.7,0.6,0.8,1.1
			c0.7-1,1.5-1.5,2.6-1.5c0.8,0,1.5,0.2,1.9,0.7c0.4,0.5,0.7,1.2,0.7,2.1v5.7h-1.4v-5.2c0-0.6,0-1-0.1-1.2c-0.1-0.2-0.3-0.4-0.5-0.6
			c-0.2-0.2-0.5-0.2-0.8-0.2c-0.6,0-1.1,0.2-1.5,0.6c-0.4,0.4-0.6,1-0.6,1.9v4.8h-1.4v-5.4c0-0.6-0.1-1.1-0.3-1.4s-0.6-0.5-1.1-0.5
			c-0.4,0-0.8,0.1-1.1,0.3c-0.3,0.2-0.6,0.5-0.7,0.9c-0.2,0.4-0.2,1-0.2,1.7v4.3H266.9z"/>
		<path d="M280.2,87.7V76.2h1.3v1.1c0.3-0.4,0.6-0.7,1-0.9s0.8-0.3,1.4-0.3c0.7,0,1.3,0.2,1.9,0.5c0.5,0.4,1,0.9,1.2,1.5
			s0.4,1.4,0.4,2.2c0,0.8-0.2,1.6-0.5,2.3s-0.7,1.2-1.3,1.6s-1.2,0.5-1.8,0.5c-0.5,0-0.9-0.1-1.3-0.3s-0.7-0.4-0.9-0.8v4H280.2z
			 M281.5,80.4c0,1.1,0.2,1.9,0.6,2.4c0.4,0.5,1,0.8,1.6,0.8c0.6,0,1.2-0.3,1.6-0.8c0.4-0.5,0.7-1.3,0.7-2.5c0-1.1-0.2-1.8-0.7-2.4
			c-0.4-0.5-1-0.8-1.6-0.8c-0.6,0-1.1,0.3-1.6,0.8C281.7,78.5,281.5,79.3,281.5,80.4z"/>
		<path d="M294.6,84.5v-1.2c-0.6,0.9-1.5,1.4-2.6,1.4c-0.5,0-0.9-0.1-1.4-0.3s-0.7-0.4-0.9-0.7c-0.2-0.3-0.4-0.6-0.4-1
			c-0.1-0.3-0.1-0.7-0.1-1.3v-5.1h1.4v4.6c0,0.7,0,1.2,0.1,1.5c0.1,0.4,0.3,0.7,0.6,0.9s0.6,0.3,1.1,0.3s0.8-0.1,1.2-0.3
			c0.4-0.2,0.6-0.5,0.8-0.9c0.2-0.4,0.2-0.9,0.2-1.6v-4.4h1.4v8.3H294.6z"/>
		<path d="M301.1,83.2l0.2,1.2c-0.4,0.1-0.8,0.1-1.1,0.1c-0.5,0-0.9-0.1-1.2-0.2s-0.5-0.4-0.6-0.6c-0.1-0.3-0.2-0.8-0.2-1.7v-4.8h-1
			v-1.1h1v-2.1l1.4-0.8v2.9h1.4v1.1h-1.4v4.9c0,0.4,0,0.7,0.1,0.8c0,0.1,0.1,0.2,0.2,0.3c0.1,0.1,0.3,0.1,0.5,0.1
			C300.6,83.3,300.9,83.3,301.1,83.2z"/>
		<path d="M308.2,81.8l1.5,0.2c-0.2,0.8-0.7,1.5-1.3,2s-1.4,0.7-2.4,0.7c-1.2,0-2.2-0.4-2.9-1.1c-0.7-0.7-1.1-1.8-1.1-3.1
			c0-1.4,0.4-2.5,1.1-3.3c0.7-0.8,1.7-1.2,2.8-1.2c1.1,0,2,0.4,2.7,1.1c0.7,0.8,1.1,1.8,1.1,3.2c0,0.1,0,0.2,0,0.4h-6.2
			c0.1,0.9,0.3,1.6,0.8,2.1s1,0.7,1.7,0.7c0.5,0,1-0.1,1.3-0.4C307.7,82.8,307.9,82.4,308.2,81.8z M303.5,79.5h4.6
			c-0.1-0.7-0.2-1.2-0.5-1.6c-0.4-0.5-1-0.8-1.7-0.8c-0.6,0-1.2,0.2-1.6,0.6C303.8,78.2,303.6,78.8,303.5,79.5z"/>
		<path d="M316.8,84.5v-1c-0.5,0.8-1.3,1.2-2.3,1.2c-0.7,0-1.3-0.2-1.8-0.5s-1-0.9-1.3-1.5c-0.3-0.7-0.5-1.4-0.5-2.3
			c0-0.8,0.1-1.6,0.4-2.3c0.3-0.7,0.7-1.2,1.2-1.6s1.2-0.5,1.9-0.5c0.5,0,0.9,0.1,1.3,0.3s0.7,0.5,1,0.8V73h1.4v11.5H316.8z
			 M312.3,80.3c0,1.1,0.2,1.9,0.7,2.4c0.4,0.5,1,0.8,1.6,0.8c0.6,0,1.1-0.3,1.6-0.8c0.4-0.5,0.6-1.3,0.6-2.3c0-1.1-0.2-2-0.7-2.5
			s-1-0.8-1.6-0.8c-0.6,0-1.1,0.3-1.6,0.8C312.5,78.4,312.3,79.2,312.3,80.3z"/>
		<path class="st7" d="M230.8,103.7v-7.2h-1.2v-1.1h1.2v-0.9c0-0.6,0-1,0.1-1.2c0.1-0.4,0.4-0.7,0.7-0.9s0.8-0.3,1.4-0.3
			c0.4,0,0.8,0,1.3,0.1l-0.2,1.2c-0.3-0.1-0.6-0.1-0.8-0.1c-0.4,0-0.7,0.1-0.9,0.3c-0.2,0.2-0.3,0.5-0.3,1v0.8h1.6v1.1h-1.6v7.2
			H230.8z"/>
		<path class="st7" d="M236.4,103.7l-2.5-8.3h1.5l1.3,4.8l0.5,1.8c0-0.1,0.2-0.7,0.4-1.7l1.3-4.9h1.4l1.2,4.8l0.4,1.6l0.5-1.6
			l1.4-4.8h1.4l-2.6,8.3h-1.5l-1.3-5l-0.3-1.4l-1.7,6.4H236.4z"/>
		<path class="st7" d="M246,103.7v-1.6h1.6v1.6H246z"/>
		<path class="st7" d="M254.9,103.7v-1.6h1.6v1.6H254.9z"/>
		<path class="st7" d="M259.3,103.7v-1.6h1.6v1.6H259.3z"/>
		<path class="st7" d="M263.7,103.7v-1.6h1.6v1.6H263.7z"/>
	</g>
	<g>
	</g>
	<g>
	</g>
	<g id="arrow">
		<g>
			<line class="st8" x1="121" y1="60.5" x2="215" y2="60.5"/>
			<g>
				<polygon class="st9" points="214,65.7 222.5,60.8 214,55.8 				"/>
			</g>
		</g>
	</g>
	<g id="arrow_1_">
		<g>
			<line class="st8" x1="111" y1="80.5" x2="215" y2="80.5"/>
			<g>
				<polygon class="st9" points="214,85.3 222.5,80.4 214,75.4 				"/>
			</g>
		</g>
	</g>
	<g id="arrow_2_">
		<g>
			<line class="st8" x1="175" y1="119.5" x2="215" y2="119.5"/>
			<g>
				<polygon class="st9" points="214,124.1 222.5,119.1 214,114.2 				"/>
			</g>
		</g>
	</g>
	<g id="arrow_15_">
		<path class="st10" d="M217.2,161.7"/>
	</g>
	<g id="arrow_3_">
		<path class="st10" d="M155.1,161.7"/>
	</g>
	<g id="arrow_6_">
		<g>
			<line class="st11" x1="61" y1="100.5" x2="215" y2="100.5"/>
			<g>
				<polygon class="st7" points="214,105 222.5,100 214,95.1 				"/>
			</g>
		</g>
	</g>
	<g>
		<path d="M13.8,119.1V118l6.2-2.6v1.1l-4.9,2l4.9,2v1.1L13.8,119.1z"/>
		<path d="M25.9,123.2v-0.9c-0.4,0.7-1.1,1-1.9,1c-0.5,0-1-0.1-1.5-0.4c-0.5-0.3-0.8-0.7-1-1.2c-0.2-0.5-0.4-1.1-0.4-1.8
			c0-0.7,0.1-1.3,0.3-1.8c0.2-0.5,0.6-1,1-1.3s1-0.4,1.5-0.4c0.4,0,0.8,0.1,1.1,0.3c0.3,0.2,0.6,0.4,0.8,0.7v-3.3h1.1v9.3H25.9z
			 M22.3,119.8c0,0.9,0.2,1.5,0.5,1.9s0.8,0.6,1.3,0.6c0.5,0,0.9-0.2,1.3-0.6c0.3-0.4,0.5-1,0.5-1.9c0-0.9-0.2-1.6-0.5-2
			s-0.8-0.6-1.3-0.6c-0.5,0-0.9,0.2-1.3,0.6C22.4,118.2,22.3,118.9,22.3,119.8z"/>
		<path d="M28.7,115.2v-1.3h1.1v1.3H28.7z M28.7,123.2v-6.7h1.1v6.7H28.7z"/>
		<path d="M33.5,123.2l-2.6-6.7h1.2l1.4,4c0.2,0.4,0.3,0.9,0.4,1.4c0.1-0.4,0.2-0.8,0.4-1.3l1.5-4.1h1.2l-2.6,6.7H33.5z"/>
		<path d="M46.1,123.2v-0.9c-0.4,0.7-1.1,1-1.9,1c-0.5,0-1-0.1-1.5-0.4c-0.5-0.3-0.8-0.7-1-1.2c-0.2-0.5-0.4-1.1-0.4-1.8
			c0-0.7,0.1-1.3,0.3-1.8c0.2-0.5,0.6-1,1-1.3s1-0.4,1.5-0.4c0.4,0,0.8,0.1,1.1,0.3c0.3,0.2,0.6,0.4,0.8,0.7v-3.3h1.1v9.3H46.1z
			 M42.5,119.8c0,0.9,0.2,1.5,0.5,1.9s0.8,0.6,1.3,0.6c0.5,0,0.9-0.2,1.3-0.6c0.3-0.4,0.5-1,0.5-1.9c0-0.9-0.2-1.6-0.5-2
			s-0.8-0.6-1.3-0.6c-0.5,0-0.9,0.2-1.3,0.6C42.7,118.2,42.5,118.9,42.5,119.8z"/>
		<path d="M53.4,122.3c-0.4,0.4-0.8,0.6-1.2,0.8c-0.4,0.1-0.8,0.2-1.3,0.2c-0.7,0-1.3-0.2-1.7-0.5c-0.4-0.4-0.6-0.8-0.6-1.4
			c0-0.3,0.1-0.6,0.2-0.9c0.1-0.3,0.3-0.5,0.6-0.7c0.2-0.2,0.5-0.3,0.8-0.4c0.2-0.1,0.6-0.1,1-0.2c0.9-0.1,1.6-0.2,2-0.4
			c0-0.2,0-0.3,0-0.3c0-0.5-0.1-0.8-0.3-1c-0.3-0.3-0.7-0.4-1.3-0.4c-0.5,0-0.9,0.1-1.2,0.3c-0.3,0.2-0.4,0.5-0.6,1l-1.1-0.2
			c0.1-0.5,0.3-0.9,0.5-1.2c0.2-0.3,0.6-0.5,1-0.7c0.4-0.2,1-0.2,1.5-0.2c0.6,0,1,0.1,1.4,0.2s0.6,0.3,0.8,0.5
			c0.2,0.2,0.3,0.5,0.4,0.8c0,0.2,0.1,0.5,0.1,1.1v1.5c0,1.1,0,1.7,0.1,2c0,0.3,0.1,0.6,0.3,0.8h-1.2
			C53.5,122.9,53.4,122.6,53.4,122.3z M53.3,119.8c-0.4,0.2-1,0.3-1.9,0.4c-0.5,0.1-0.8,0.1-1,0.2s-0.3,0.2-0.5,0.4
			c-0.1,0.2-0.2,0.3-0.2,0.5c0,0.3,0.1,0.6,0.3,0.8c0.2,0.2,0.6,0.3,1,0.3c0.4,0,0.8-0.1,1.2-0.3c0.3-0.2,0.6-0.5,0.8-0.8
			c0.1-0.3,0.2-0.6,0.2-1.1V119.8z"/>
		<path d="M58.7,122.1l0.2,1c-0.3,0.1-0.6,0.1-0.9,0.1c-0.4,0-0.7-0.1-1-0.2s-0.4-0.3-0.5-0.5c-0.1-0.2-0.1-0.7-0.1-1.3v-3.9h-0.8
			v-0.9h0.8v-1.7l1.1-0.7v2.4h1.1v0.9h-1.1v3.9c0,0.3,0,0.5,0.1,0.6c0,0.1,0.1,0.2,0.2,0.2c0.1,0.1,0.2,0.1,0.4,0.1
			C58.3,122.2,58.5,122.2,58.7,122.1z"/>
		<path d="M64.2,122.3c-0.4,0.4-0.8,0.6-1.2,0.8c-0.4,0.1-0.8,0.2-1.3,0.2c-0.7,0-1.3-0.2-1.7-0.5c-0.4-0.4-0.6-0.8-0.6-1.4
			c0-0.3,0.1-0.6,0.2-0.9c0.1-0.3,0.3-0.5,0.6-0.7c0.2-0.2,0.5-0.3,0.8-0.4c0.2-0.1,0.6-0.1,1-0.2c0.9-0.1,1.6-0.2,2-0.4
			c0-0.2,0-0.3,0-0.3c0-0.5-0.1-0.8-0.3-1c-0.3-0.3-0.7-0.4-1.3-0.4c-0.5,0-0.9,0.1-1.2,0.3c-0.3,0.2-0.4,0.5-0.6,1l-1.1-0.2
			c0.1-0.5,0.3-0.9,0.5-1.2c0.2-0.3,0.6-0.5,1-0.7c0.4-0.2,1-0.2,1.5-0.2c0.6,0,1,0.1,1.4,0.2s0.6,0.3,0.8,0.5
			c0.2,0.2,0.3,0.5,0.4,0.8c0,0.2,0.1,0.5,0.1,1.1v1.5c0,1.1,0,1.7,0.1,2c0,0.3,0.1,0.6,0.3,0.8h-1.2
			C64.3,122.9,64.2,122.6,64.2,122.3z M64.1,119.8c-0.4,0.2-1,0.3-1.9,0.4c-0.5,0.1-0.8,0.1-1,0.2s-0.3,0.2-0.5,0.4
			c-0.1,0.2-0.2,0.3-0.2,0.5c0,0.3,0.1,0.6,0.3,0.8c0.2,0.2,0.6,0.3,1,0.3c0.4,0,0.8-0.1,1.2-0.3c0.3-0.2,0.6-0.5,0.8-0.8
			c0.1-0.3,0.2-0.6,0.2-1.1V119.8z"/>
		<path d="M66.6,120.4v-1.1h3.5v1.1H66.6z"/>
		<path d="M72.4,123.2h-1.1v-9.3h1.1v3.3c0.5-0.6,1.1-0.9,1.8-0.9c0.4,0,0.8,0.1,1.2,0.3c0.4,0.2,0.7,0.4,0.9,0.7
			c0.2,0.3,0.4,0.7,0.6,1.1s0.2,0.9,0.2,1.4c0,1.2-0.3,2-0.9,2.7s-1.3,0.9-2.1,0.9c-0.8,0-1.4-0.3-1.9-1V123.2z M72.4,119.7
			c0,0.8,0.1,1.4,0.3,1.8c0.4,0.6,0.8,0.9,1.5,0.9c0.5,0,0.9-0.2,1.3-0.7c0.4-0.4,0.5-1.1,0.5-1.9c0-0.9-0.2-1.5-0.5-1.9
			c-0.3-0.4-0.8-0.6-1.3-0.6c-0.5,0-0.9,0.2-1.3,0.7C72.6,118.3,72.4,118.9,72.4,119.7z"/>
		<path d="M78.6,115.2v-1.3h1.1v1.3H78.6z M78.6,123.2v-6.7h1.1v6.7H78.6z"/>
		<path d="M81.5,123.2v-6.7h1v1c0.5-0.7,1.2-1.1,2.1-1.1c0.4,0,0.8,0.1,1.1,0.2c0.3,0.1,0.6,0.3,0.8,0.6s0.3,0.5,0.4,0.8
			c0,0.2,0.1,0.6,0.1,1.1v4.1h-1.1v-4.1c0-0.5,0-0.8-0.1-1c-0.1-0.2-0.2-0.4-0.5-0.6c-0.2-0.1-0.5-0.2-0.8-0.2
			c-0.5,0-0.9,0.2-1.3,0.5c-0.4,0.3-0.5,0.9-0.5,1.8v3.7H81.5z"/>
		<path d="M93.1,123.2v-0.9c-0.4,0.7-1.1,1-1.9,1c-0.5,0-1-0.1-1.5-0.4c-0.5-0.3-0.8-0.7-1-1.2c-0.2-0.5-0.4-1.1-0.4-1.8
			c0-0.7,0.1-1.3,0.3-1.8c0.2-0.5,0.6-1,1-1.3s1-0.4,1.5-0.4c0.4,0,0.8,0.1,1.1,0.3c0.3,0.2,0.6,0.4,0.8,0.7v-3.3h1.1v9.3H93.1z
			 M89.5,119.8c0,0.9,0.2,1.5,0.5,1.9s0.8,0.6,1.3,0.6c0.5,0,0.9-0.2,1.3-0.6c0.3-0.4,0.5-1,0.5-1.9c0-0.9-0.2-1.6-0.5-2
			s-0.8-0.6-1.3-0.6c-0.5,0-0.9,0.2-1.3,0.6C89.6,118.2,89.5,118.9,89.5,119.8z"/>
		<path d="M102,117.7h-6.1v-1.1h6.1V117.7z M102,120.5h-6.1v-1.1h6.1V120.5z"/>
		<path d="M103.5,115.1v-1.3h1.2v1c0,0.6-0.1,1-0.2,1.2c-0.2,0.3-0.5,0.6-0.9,0.8l-0.3-0.5c0.2-0.1,0.4-0.2,0.5-0.4
			c0.1-0.2,0.2-0.5,0.2-0.8H103.5z"/>
		<path d="M108.9,122.1l0.2,1c-0.3,0.1-0.6,0.1-0.9,0.1c-0.4,0-0.7-0.1-1-0.2s-0.4-0.3-0.5-0.5c-0.1-0.2-0.1-0.7-0.1-1.3v-3.9h-0.8
			v-0.9h0.8v-1.7l1.1-0.7v2.4h1.1v0.9h-1.1v3.9c0,0.3,0,0.5,0.1,0.6c0,0.1,0.1,0.2,0.2,0.2c0.1,0.1,0.2,0.1,0.4,0.1
			C108.5,122.2,108.7,122.2,108.9,122.1z"/>
		<path d="M114.6,121l1.2,0.1c-0.2,0.7-0.5,1.2-1,1.6s-1.1,0.6-1.9,0.6c-1,0-1.8-0.3-2.3-0.9c-0.6-0.6-0.9-1.5-0.9-2.6
			c0-1.1,0.3-2,0.9-2.6s1.3-0.9,2.3-0.9c0.9,0,1.6,0.3,2.2,0.9s0.9,1.5,0.9,2.6c0,0.1,0,0.2,0,0.3h-5c0,0.7,0.3,1.3,0.6,1.7
			s0.8,0.6,1.4,0.6c0.4,0,0.8-0.1,1.1-0.3S114.5,121.5,114.6,121z M110.9,119.1h3.8c-0.1-0.6-0.2-1-0.4-1.3
			c-0.4-0.4-0.8-0.7-1.4-0.7c-0.5,0-1,0.2-1.3,0.5C111.1,118.1,110.9,118.5,110.9,119.1z"/>
		<path d="M116.5,123.2l2.5-3.5l-2.3-3.2h1.4l1,1.6c0.2,0.3,0.4,0.6,0.5,0.8c0.2-0.3,0.4-0.5,0.5-0.7l1.1-1.6h1.4l-2.3,3.2l2.5,3.6
			h-1.4l-1.4-2.1l-0.4-0.6l-1.8,2.7H116.5z"/>
		<path d="M126.3,122.1l0.2,1c-0.3,0.1-0.6,0.1-0.9,0.1c-0.4,0-0.7-0.1-1-0.2s-0.4-0.3-0.5-0.5c-0.1-0.2-0.1-0.7-0.1-1.3v-3.9h-0.8
			v-0.9h0.8v-1.7l1.1-0.7v2.4h1.1v0.9h-1.1v3.9c0,0.3,0,0.5,0.1,0.6c0,0.1,0.1,0.2,0.2,0.2c0.1,0.1,0.2,0.1,0.4,0.1
			C125.9,122.2,126.1,122.2,126.3,122.1z"/>
		<path d="M127.7,117.7v-1.3h1.3v1.3H127.7z M127.7,123.2v-1.3h1.3v1.3H127.7z"/>
		<path d="M134.6,123.2v-9.3h1.1v9.3H134.6z"/>
		<path d="M141.9,122.3c-0.4,0.4-0.8,0.6-1.2,0.8c-0.4,0.1-0.8,0.2-1.3,0.2c-0.7,0-1.3-0.2-1.7-0.5c-0.4-0.4-0.6-0.8-0.6-1.4
			c0-0.3,0.1-0.6,0.2-0.9c0.1-0.3,0.3-0.5,0.6-0.7c0.2-0.2,0.5-0.3,0.8-0.4c0.2-0.1,0.6-0.1,1-0.2c0.9-0.1,1.6-0.2,2-0.4
			c0-0.2,0-0.3,0-0.3c0-0.5-0.1-0.8-0.3-1c-0.3-0.3-0.7-0.4-1.3-0.4c-0.5,0-0.9,0.1-1.2,0.3c-0.3,0.2-0.4,0.5-0.6,1l-1.1-0.2
			c0.1-0.5,0.3-0.9,0.5-1.2c0.2-0.3,0.6-0.5,1-0.7c0.4-0.2,1-0.2,1.5-0.2c0.6,0,1,0.1,1.4,0.2s0.6,0.3,0.8,0.5
			c0.2,0.2,0.3,0.5,0.4,0.8c0,0.2,0.1,0.5,0.1,1.1v1.5c0,1.1,0,1.7,0.1,2c0,0.3,0.1,0.6,0.3,0.8h-1.2
			C142,122.9,141.9,122.6,141.9,122.3z M141.8,119.8c-0.4,0.2-1,0.3-1.9,0.4c-0.5,0.1-0.8,0.1-1,0.2s-0.3,0.2-0.5,0.4
			c-0.1,0.2-0.2,0.3-0.2,0.5c0,0.3,0.1,0.6,0.3,0.8c0.2,0.2,0.6,0.3,1,0.3c0.4,0,0.8-0.1,1.2-0.3c0.3-0.2,0.6-0.5,0.8-0.8
			c0.1-0.3,0.2-0.6,0.2-1.1V119.8z"/>
		<path d="M145.8,123.2h-1.1v-9.3h1.1v3.3c0.5-0.6,1.1-0.9,1.8-0.9c0.4,0,0.8,0.1,1.2,0.3c0.4,0.2,0.7,0.4,0.9,0.7
			c0.2,0.3,0.4,0.7,0.6,1.1s0.2,0.9,0.2,1.4c0,1.2-0.3,2-0.9,2.7s-1.3,0.9-2.1,0.9c-0.8,0-1.4-0.3-1.9-1V123.2z M145.8,119.7
			c0,0.8,0.1,1.4,0.3,1.8c0.4,0.6,0.8,0.9,1.5,0.9c0.5,0,0.9-0.2,1.3-0.7c0.4-0.4,0.5-1.1,0.5-1.9c0-0.9-0.2-1.5-0.5-1.9
			c-0.3-0.4-0.8-0.6-1.3-0.6c-0.5,0-0.9,0.2-1.3,0.7C145.9,118.3,145.8,118.9,145.8,119.7z"/>
		<path d="M156.6,121l1.2,0.1c-0.2,0.7-0.5,1.2-1,1.6s-1.1,0.6-1.9,0.6c-1,0-1.8-0.3-2.3-0.9c-0.6-0.6-0.9-1.5-0.9-2.6
			c0-1.1,0.3-2,0.9-2.6s1.3-0.9,2.3-0.9c0.9,0,1.6,0.3,2.2,0.9s0.9,1.5,0.9,2.6c0,0.1,0,0.2,0,0.3h-5c0,0.7,0.3,1.3,0.6,1.7
			s0.8,0.6,1.4,0.6c0.4,0,0.8-0.1,1.1-0.3S156.4,121.5,156.6,121z M152.8,119.1h3.8c-0.1-0.6-0.2-1-0.4-1.3
			c-0.4-0.4-0.8-0.7-1.4-0.7c-0.5,0-1,0.2-1.3,0.5C153,118.1,152.8,118.5,152.8,119.1z"/>
		<path d="M159.2,123.2v-9.3h1.1v9.3H159.2z"/>
		<path d="M162,115.1v-1.3h1.2v1c0,0.6-0.1,1-0.2,1.2c-0.2,0.3-0.5,0.6-0.9,0.8l-0.3-0.5c0.2-0.1,0.4-0.2,0.5-0.4
			c0.1-0.2,0.2-0.5,0.2-0.8H162z"/>
		<path d="M171,119.1l-6.2,2.6v-1.1l4.9-2l-4.9-2v-1.1l6.2,2.6V119.1z"/>
	</g>
	<g id="arrow_14_">
		<g>
			<line class="st11" x1="127" y1="138.5" x2="215" y2="138.5"/>
			<g>
				<polygon class="st7" points="214,143.7 222.5,138.8 214,133.9 				"/>
			</g>
		</g>
	</g>
	<g>
		<path class="st7" d="M13.8,138.3v-1.1l6.2-2.6v1.1l-4.9,2l4.9,2v1.1L13.8,138.3z"/>
		<path class="st7" d="M25.9,142.3v-0.9c-0.4,0.7-1.1,1-1.9,1c-0.5,0-1-0.1-1.5-0.4c-0.5-0.3-0.8-0.7-1-1.2
			c-0.2-0.5-0.4-1.1-0.4-1.8c0-0.7,0.1-1.3,0.3-1.8s0.6-1,1-1.3c0.4-0.3,1-0.4,1.5-0.4c0.4,0,0.8,0.1,1.1,0.3
			c0.3,0.2,0.6,0.4,0.8,0.7V133h1.1v9.3H25.9z M22.3,139c0,0.9,0.2,1.5,0.5,1.9c0.4,0.4,0.8,0.6,1.3,0.6c0.5,0,0.9-0.2,1.3-0.6
			c0.3-0.4,0.5-1,0.5-1.9c0-0.9-0.2-1.6-0.5-2s-0.8-0.6-1.3-0.6c-0.5,0-0.9,0.2-1.3,0.6C22.4,137.4,22.3,138.1,22.3,139z"/>
		<path class="st7" d="M28.7,134.3V133h1.1v1.3H28.7z M28.7,142.3v-6.7h1.1v6.7H28.7z"/>
		<path class="st7" d="M33.5,142.3l-2.6-6.7h1.2l1.4,4c0.2,0.4,0.3,0.9,0.4,1.4c0.1-0.4,0.2-0.8,0.4-1.3l1.5-4.1h1.2l-2.6,6.7H33.5z
			"/>
		<path class="st7" d="M46.1,142.3v-0.9c-0.4,0.7-1.1,1-1.9,1c-0.5,0-1-0.1-1.5-0.4c-0.5-0.3-0.8-0.7-1-1.2
			c-0.2-0.5-0.4-1.1-0.4-1.8c0-0.7,0.1-1.3,0.3-1.8s0.6-1,1-1.3c0.4-0.3,1-0.4,1.5-0.4c0.4,0,0.8,0.1,1.1,0.3
			c0.3,0.2,0.6,0.4,0.8,0.7V133h1.1v9.3H46.1z M42.5,139c0,0.9,0.2,1.5,0.5,1.9c0.4,0.4,0.8,0.6,1.3,0.6c0.5,0,0.9-0.2,1.3-0.6
			c0.3-0.4,0.5-1,0.5-1.9c0-0.9-0.2-1.6-0.5-2s-0.8-0.6-1.3-0.6c-0.5,0-0.9,0.2-1.3,0.6C42.7,137.4,42.5,138.1,42.5,139z"/>
		<path class="st7" d="M53.4,141.5c-0.4,0.4-0.8,0.6-1.2,0.8c-0.4,0.1-0.8,0.2-1.3,0.2c-0.7,0-1.3-0.2-1.7-0.5
			c-0.4-0.4-0.6-0.8-0.6-1.4c0-0.3,0.1-0.6,0.2-0.9c0.1-0.3,0.3-0.5,0.6-0.7c0.2-0.2,0.5-0.3,0.8-0.4c0.2-0.1,0.6-0.1,1-0.2
			c0.9-0.1,1.6-0.2,2-0.4c0-0.2,0-0.3,0-0.3c0-0.5-0.1-0.8-0.3-1c-0.3-0.3-0.7-0.4-1.3-0.4c-0.5,0-0.9,0.1-1.2,0.3
			c-0.3,0.2-0.4,0.5-0.6,1l-1.1-0.2c0.1-0.5,0.3-0.9,0.5-1.2s0.6-0.5,1-0.7c0.4-0.2,1-0.2,1.5-0.2c0.6,0,1,0.1,1.4,0.2
			s0.6,0.3,0.8,0.5s0.3,0.5,0.4,0.8c0,0.2,0.1,0.5,0.1,1.1v1.5c0,1.1,0,1.7,0.1,2c0,0.3,0.1,0.6,0.3,0.8h-1.2
			C53.5,142.1,53.4,141.8,53.4,141.5z M53.3,138.9c-0.4,0.2-1,0.3-1.9,0.4c-0.5,0.1-0.8,0.1-1,0.2c-0.2,0.1-0.3,0.2-0.5,0.4
			s-0.2,0.3-0.2,0.5c0,0.3,0.1,0.6,0.3,0.8c0.2,0.2,0.6,0.3,1,0.3c0.4,0,0.8-0.1,1.2-0.3s0.6-0.5,0.8-0.8c0.1-0.3,0.2-0.6,0.2-1.1
			V138.9z"/>
		<path class="st7" d="M58.7,141.3l0.2,1c-0.3,0.1-0.6,0.1-0.9,0.1c-0.4,0-0.7-0.1-1-0.2c-0.2-0.1-0.4-0.3-0.5-0.5s-0.1-0.7-0.1-1.3
			v-3.9h-0.8v-0.9h0.8v-1.7l1.1-0.7v2.4h1.1v0.9h-1.1v3.9c0,0.3,0,0.5,0.1,0.6c0,0.1,0.1,0.2,0.2,0.2c0.1,0.1,0.2,0.1,0.4,0.1
			C58.3,141.4,58.5,141.3,58.7,141.3z"/>
		<path class="st7" d="M64.2,141.5c-0.4,0.4-0.8,0.6-1.2,0.8c-0.4,0.1-0.8,0.2-1.3,0.2c-0.7,0-1.3-0.2-1.7-0.5
			c-0.4-0.4-0.6-0.8-0.6-1.4c0-0.3,0.1-0.6,0.2-0.9c0.1-0.3,0.3-0.5,0.6-0.7c0.2-0.2,0.5-0.3,0.8-0.4c0.2-0.1,0.6-0.1,1-0.2
			c0.9-0.1,1.6-0.2,2-0.4c0-0.2,0-0.3,0-0.3c0-0.5-0.1-0.8-0.3-1c-0.3-0.3-0.7-0.4-1.3-0.4c-0.5,0-0.9,0.1-1.2,0.3
			c-0.3,0.2-0.4,0.5-0.6,1l-1.1-0.2c0.1-0.5,0.3-0.9,0.5-1.2s0.6-0.5,1-0.7c0.4-0.2,1-0.2,1.5-0.2c0.6,0,1,0.1,1.4,0.2
			s0.6,0.3,0.8,0.5s0.3,0.5,0.4,0.8c0,0.2,0.1,0.5,0.1,1.1v1.5c0,1.1,0,1.7,0.1,2c0,0.3,0.1,0.6,0.3,0.8h-1.2
			C64.3,142.1,64.2,141.8,64.2,141.5z M64.1,138.9c-0.4,0.2-1,0.3-1.9,0.4c-0.5,0.1-0.8,0.1-1,0.2c-0.2,0.1-0.3,0.2-0.5,0.4
			s-0.2,0.3-0.2,0.5c0,0.3,0.1,0.6,0.3,0.8c0.2,0.2,0.6,0.3,1,0.3c0.4,0,0.8-0.1,1.2-0.3s0.6-0.5,0.8-0.8c0.1-0.3,0.2-0.6,0.2-1.1
			V138.9z"/>
		<path class="st7" d="M66.6,139.5v-1.1h3.5v1.1H66.6z"/>
		<path class="st7" d="M72.4,142.3h-1.1V133h1.1v3.3c0.5-0.6,1.1-0.9,1.8-0.9c0.4,0,0.8,0.1,1.2,0.3c0.4,0.2,0.7,0.4,0.9,0.7
			c0.2,0.3,0.4,0.7,0.6,1.1c0.1,0.4,0.2,0.9,0.2,1.4c0,1.2-0.3,2-0.9,2.7c-0.6,0.6-1.3,0.9-2.1,0.9c-0.8,0-1.4-0.3-1.9-1V142.3z
			 M72.4,138.9c0,0.8,0.1,1.4,0.3,1.8c0.4,0.6,0.8,0.9,1.5,0.9c0.5,0,0.9-0.2,1.3-0.7s0.5-1.1,0.5-1.9c0-0.9-0.2-1.5-0.5-1.9
			c-0.3-0.4-0.8-0.6-1.3-0.6c-0.5,0-0.9,0.2-1.3,0.7S72.4,138.1,72.4,138.9z"/>
		<path class="st7" d="M78.6,134.3V133h1.1v1.3H78.6z M78.6,142.3v-6.7h1.1v6.7H78.6z"/>
		<path class="st7" d="M81.5,142.3v-6.7h1v1c0.5-0.7,1.2-1.1,2.1-1.1c0.4,0,0.8,0.1,1.1,0.2c0.3,0.1,0.6,0.3,0.8,0.6
			c0.2,0.2,0.3,0.5,0.4,0.8c0,0.2,0.1,0.6,0.1,1.1v4.1h-1.1v-4.1c0-0.5,0-0.8-0.1-1s-0.2-0.4-0.5-0.6c-0.2-0.1-0.5-0.2-0.8-0.2
			c-0.5,0-0.9,0.2-1.3,0.5c-0.4,0.3-0.5,0.9-0.5,1.8v3.7H81.5z"/>
		<path class="st7" d="M93.1,142.3v-0.9c-0.4,0.7-1.1,1-1.9,1c-0.5,0-1-0.1-1.5-0.4c-0.5-0.3-0.8-0.7-1-1.2
			c-0.2-0.5-0.4-1.1-0.4-1.8c0-0.7,0.1-1.3,0.3-1.8s0.6-1,1-1.3c0.4-0.3,1-0.4,1.5-0.4c0.4,0,0.8,0.1,1.1,0.3
			c0.3,0.2,0.6,0.4,0.8,0.7V133h1.1v9.3H93.1z M89.5,139c0,0.9,0.2,1.5,0.5,1.9c0.4,0.4,0.8,0.6,1.3,0.6c0.5,0,0.9-0.2,1.3-0.6
			c0.3-0.4,0.5-1,0.5-1.9c0-0.9-0.2-1.6-0.5-2s-0.8-0.6-1.3-0.6c-0.5,0-0.9,0.2-1.3,0.6C89.6,137.4,89.5,138.1,89.5,139z"/>
		<path class="st7" d="M102,136.9h-6.1v-1.1h6.1V136.9z M102,139.7h-6.1v-1.1h6.1V139.7z"/>
		<path class="st7" d="M107.5,142.3V141h1.3v1.3H107.5z"/>
		<path class="st7" d="M111.1,142.3V141h1.3v1.3H111.1z"/>
		<path class="st7" d="M114.7,142.3V141h1.3v1.3H114.7z"/>
		<path class="st7" d="M124,138.3l-6.2,2.6v-1.1l4.9-2l-4.9-2v-1.1l6.2,2.6V138.3z"/>
	</g>
	<g>
		<path class="st7" d="M230.1,139.3v-1.1l6.2-2.6v1.1l-4.9,2l4.9,2v1.1L230.1,139.3z"/>
		<path class="st7" d="M242.2,143.3v-0.9c-0.4,0.7-1.1,1-1.9,1c-0.5,0-1-0.1-1.5-0.4c-0.5-0.3-0.8-0.7-1-1.2
			c-0.2-0.5-0.4-1.1-0.4-1.8c0-0.7,0.1-1.3,0.3-1.8c0.2-0.5,0.6-1,1-1.3c0.4-0.3,1-0.4,1.5-0.4c0.4,0,0.8,0.1,1.1,0.3
			c0.3,0.2,0.6,0.4,0.8,0.7V134h1.1v9.3H242.2z M238.6,140c0,0.9,0.2,1.5,0.5,1.9c0.4,0.4,0.8,0.6,1.3,0.6c0.5,0,0.9-0.2,1.3-0.6
			c0.3-0.4,0.5-1,0.5-1.9c0-0.9-0.2-1.6-0.5-2s-0.8-0.6-1.3-0.6c-0.5,0-0.9,0.2-1.3,0.6C238.8,138.4,238.6,139.1,238.6,140z"/>
		<path class="st7" d="M245.1,135.3V134h1.1v1.3H245.1z M245.1,143.3v-6.7h1.1v6.7H245.1z"/>
		<path class="st7" d="M249.8,143.3l-2.6-6.7h1.2l1.4,4c0.2,0.4,0.3,0.9,0.4,1.4c0.1-0.4,0.2-0.8,0.4-1.3l1.5-4.1h1.2l-2.6,6.7
			H249.8z"/>
		<path class="st7" d="M262.4,143.3v-0.9c-0.4,0.7-1.1,1-1.9,1c-0.5,0-1-0.1-1.5-0.4c-0.5-0.3-0.8-0.7-1-1.2
			c-0.2-0.5-0.4-1.1-0.4-1.8c0-0.7,0.1-1.3,0.3-1.8c0.2-0.5,0.6-1,1-1.3c0.4-0.3,1-0.4,1.5-0.4c0.4,0,0.8,0.1,1.1,0.3
			c0.3,0.2,0.6,0.4,0.8,0.7V134h1.1v9.3H262.4z M258.8,140c0,0.9,0.2,1.5,0.5,1.9c0.4,0.4,0.8,0.6,1.3,0.6c0.5,0,0.9-0.2,1.3-0.6
			c0.3-0.4,0.5-1,0.5-1.9c0-0.9-0.2-1.6-0.5-2s-0.8-0.6-1.3-0.6c-0.5,0-0.9,0.2-1.3,0.6C259,138.4,258.8,139.1,258.8,140z"/>
		<path class="st7" d="M269.7,142.5c-0.4,0.4-0.8,0.6-1.2,0.8c-0.4,0.1-0.8,0.2-1.3,0.2c-0.7,0-1.3-0.2-1.7-0.5
			c-0.4-0.4-0.6-0.8-0.6-1.4c0-0.3,0.1-0.6,0.2-0.9c0.2-0.3,0.3-0.5,0.6-0.7s0.5-0.3,0.8-0.4c0.2-0.1,0.6-0.1,1-0.2
			c0.9-0.1,1.6-0.2,2-0.4c0-0.2,0-0.3,0-0.3c0-0.5-0.1-0.8-0.3-1c-0.3-0.3-0.7-0.4-1.3-0.4c-0.5,0-0.9,0.1-1.2,0.3s-0.4,0.5-0.6,1
			l-1.1-0.2c0.1-0.5,0.3-0.9,0.5-1.2s0.6-0.5,1-0.7c0.4-0.2,0.9-0.2,1.5-0.2c0.6,0,1,0.1,1.4,0.2c0.4,0.1,0.6,0.3,0.8,0.5
			s0.3,0.5,0.4,0.8c0,0.2,0.1,0.5,0.1,1.1v1.5c0,1.1,0,1.7,0.1,2s0.1,0.6,0.3,0.8h-1.2C269.8,143.1,269.7,142.8,269.7,142.5z
			 M269.6,139.9c-0.4,0.2-1,0.3-1.9,0.4c-0.5,0.1-0.8,0.1-1,0.2c-0.2,0.1-0.3,0.2-0.5,0.4c-0.1,0.2-0.2,0.3-0.2,0.5
			c0,0.3,0.1,0.6,0.3,0.8s0.6,0.3,1,0.3c0.4,0,0.8-0.1,1.2-0.3c0.3-0.2,0.6-0.5,0.8-0.8c0.1-0.3,0.2-0.6,0.2-1.1V139.9z"/>
		<path class="st7" d="M275,142.3l0.2,1c-0.3,0.1-0.6,0.1-0.9,0.1c-0.4,0-0.7-0.1-1-0.2c-0.2-0.1-0.4-0.3-0.5-0.5s-0.1-0.7-0.1-1.3
			v-3.9h-0.8v-0.9h0.8v-1.7l1.1-0.7v2.4h1.1v0.9h-1.1v3.9c0,0.3,0,0.5,0.1,0.6s0.1,0.2,0.2,0.2c0.1,0.1,0.2,0.1,0.4,0.1
			C274.7,142.4,274.8,142.3,275,142.3z"/>
		<path class="st7" d="M280.5,142.5c-0.4,0.4-0.8,0.6-1.2,0.8c-0.4,0.1-0.8,0.2-1.3,0.2c-0.7,0-1.3-0.2-1.7-0.5
			c-0.4-0.4-0.6-0.8-0.6-1.4c0-0.3,0.1-0.6,0.2-0.9c0.2-0.3,0.3-0.5,0.6-0.7s0.5-0.3,0.8-0.4c0.2-0.1,0.6-0.1,1-0.2
			c0.9-0.1,1.6-0.2,2-0.4c0-0.2,0-0.3,0-0.3c0-0.5-0.1-0.8-0.3-1c-0.3-0.3-0.7-0.4-1.3-0.4c-0.5,0-0.9,0.1-1.2,0.3s-0.4,0.5-0.6,1
			l-1.1-0.2c0.1-0.5,0.3-0.9,0.5-1.2s0.6-0.5,1-0.7c0.4-0.2,0.9-0.2,1.5-0.2c0.6,0,1,0.1,1.4,0.2c0.4,0.1,0.6,0.3,0.8,0.5
			s0.3,0.5,0.4,0.8c0,0.2,0.1,0.5,0.1,1.1v1.5c0,1.1,0,1.7,0.1,2s0.1,0.6,0.3,0.8h-1.2C280.7,143.1,280.6,142.8,280.5,142.5z
			 M280.4,139.9c-0.4,0.2-1,0.3-1.9,0.4c-0.5,0.1-0.8,0.1-1,0.2c-0.2,0.1-0.3,0.2-0.5,0.4c-0.1,0.2-0.2,0.3-0.2,0.5
			c0,0.3,0.1,0.6,0.3,0.8s0.6,0.3,1,0.3c0.4,0,0.8-0.1,1.2-0.3c0.3-0.2,0.6-0.5,0.8-0.8c0.1-0.3,0.2-0.6,0.2-1.1V139.9z"/>
		<path class="st7" d="M282.9,140.5v-1.1h3.5v1.1H282.9z"/>
		<path class="st7" d="M288.8,143.3h-1.1V134h1.1v3.3c0.5-0.6,1.1-0.9,1.8-0.9c0.4,0,0.8,0.1,1.2,0.3s0.7,0.4,0.9,0.7
			s0.4,0.7,0.6,1.1c0.1,0.4,0.2,0.9,0.2,1.4c0,1.2-0.3,2-0.9,2.7c-0.6,0.6-1.3,0.9-2.1,0.9c-0.8,0-1.4-0.3-1.9-1V143.3z
			 M288.7,139.9c0,0.8,0.1,1.4,0.3,1.8c0.4,0.6,0.8,0.9,1.5,0.9c0.5,0,0.9-0.2,1.3-0.7c0.4-0.4,0.5-1.1,0.5-1.9
			c0-0.9-0.2-1.5-0.5-1.9c-0.3-0.4-0.8-0.6-1.3-0.6c-0.5,0-0.9,0.2-1.3,0.7C288.9,138.5,288.7,139.1,288.7,139.9z"/>
		<path class="st7" d="M294.9,135.3V134h1.1v1.3H294.9z M294.9,143.3v-6.7h1.1v6.7H294.9z"/>
		<path class="st7" d="M297.8,143.3v-6.7h1v1c0.5-0.7,1.2-1.1,2.1-1.1c0.4,0,0.8,0.1,1.1,0.2c0.3,0.1,0.6,0.3,0.8,0.6
			c0.2,0.2,0.3,0.5,0.4,0.8c0,0.2,0.1,0.6,0.1,1.1v4.1h-1.1v-4.1c0-0.5,0-0.8-0.1-1c-0.1-0.2-0.2-0.4-0.5-0.6s-0.5-0.2-0.8-0.2
			c-0.5,0-0.9,0.2-1.3,0.5c-0.4,0.3-0.5,0.9-0.5,1.8v3.7H297.8z"/>
		<path class="st7" d="M309.4,143.3v-0.9c-0.4,0.7-1.1,1-1.9,1c-0.5,0-1-0.1-1.5-0.4c-0.5-0.3-0.8-0.7-1-1.2
			c-0.2-0.5-0.4-1.1-0.4-1.8c0-0.7,0.1-1.3,0.3-1.8c0.2-0.5,0.6-1,1-1.3c0.4-0.3,1-0.4,1.5-0.4c0.4,0,0.8,0.1,1.1,0.3
			c0.3,0.2,0.6,0.4,0.8,0.7V134h1.1v9.3H309.4z M305.8,140c0,0.9,0.2,1.5,0.5,1.9c0.4,0.4,0.8,0.6,1.3,0.6c0.5,0,0.9-0.2,1.3-0.6
			c0.3-0.4,0.5-1,0.5-1.9c0-0.9-0.2-1.6-0.5-2s-0.8-0.6-1.3-0.6c-0.5,0-0.9,0.2-1.3,0.6C306,138.4,305.8,139.1,305.8,140z"/>
		<path class="st7" d="M318.3,137.9h-6.1v-1.1h6.1V137.9z M318.3,140.7h-6.1v-1.1h6.1V140.7z"/>
		<path class="st7" d="M323.8,143.3V142h1.3v1.3H323.8z"/>
		<path class="st7" d="M327.4,143.3V142h1.3v1.3H327.4z"/>
		<path class="st7" d="M331,143.3V142h1.3v1.3H331z"/>
		<path class="st7" d="M340.3,139.3l-6.2,2.6v-1.1l4.9-2l-4.9-2v-1.1l6.2,2.6V139.3z"/>
	</g>
	<g>
		<path d="M230.1,120.1V119l6.2-2.6v1.1l-4.9,2l4.9,2v1.1L230.1,120.1z"/>
		<path d="M242.2,124.2v-0.9c-0.4,0.7-1.1,1-1.9,1c-0.5,0-1-0.1-1.5-0.4c-0.5-0.3-0.8-0.7-1-1.2c-0.2-0.5-0.4-1.1-0.4-1.8
			c0-0.7,0.1-1.3,0.3-1.8c0.2-0.5,0.6-1,1-1.3s1-0.4,1.5-0.4c0.4,0,0.8,0.1,1.1,0.3c0.3,0.2,0.6,0.4,0.8,0.7v-3.3h1.1v9.3H242.2z
			 M238.6,120.8c0,0.9,0.2,1.5,0.5,1.9c0.4,0.4,0.8,0.6,1.3,0.6c0.5,0,0.9-0.2,1.3-0.6c0.3-0.4,0.5-1,0.5-1.9c0-0.9-0.2-1.6-0.5-2
			s-0.8-0.6-1.3-0.6c-0.5,0-0.9,0.2-1.3,0.6S238.6,119.9,238.6,120.8z"/>
		<path d="M245.1,116.2v-1.3h1.1v1.3H245.1z M245.1,124.2v-6.7h1.1v6.7H245.1z"/>
		<path d="M249.8,124.2l-2.6-6.7h1.2l1.4,4c0.2,0.4,0.3,0.9,0.4,1.4c0.1-0.4,0.2-0.8,0.4-1.3l1.5-4.1h1.2l-2.6,6.7H249.8z"/>
		<path d="M262.4,124.2v-0.9c-0.4,0.7-1.1,1-1.9,1c-0.5,0-1-0.1-1.5-0.4c-0.5-0.3-0.8-0.7-1-1.2c-0.2-0.5-0.4-1.1-0.4-1.8
			c0-0.7,0.1-1.3,0.3-1.8c0.2-0.5,0.6-1,1-1.3s1-0.4,1.5-0.4c0.4,0,0.8,0.1,1.1,0.3c0.3,0.2,0.6,0.4,0.8,0.7v-3.3h1.1v9.3H262.4z
			 M258.8,120.8c0,0.9,0.2,1.5,0.5,1.9c0.4,0.4,0.8,0.6,1.3,0.6c0.5,0,0.9-0.2,1.3-0.6c0.3-0.4,0.5-1,0.5-1.9c0-0.9-0.2-1.6-0.5-2
			s-0.8-0.6-1.3-0.6c-0.5,0-0.9,0.2-1.3,0.6S258.8,119.9,258.8,120.8z"/>
		<path d="M269.7,123.3c-0.4,0.4-0.8,0.6-1.2,0.8s-0.8,0.2-1.3,0.2c-0.7,0-1.3-0.2-1.7-0.5c-0.4-0.4-0.6-0.8-0.6-1.4
			c0-0.3,0.1-0.6,0.2-0.9c0.2-0.3,0.3-0.5,0.6-0.7s0.5-0.3,0.8-0.4c0.2-0.1,0.6-0.1,1-0.2c0.9-0.1,1.6-0.2,2-0.4c0-0.2,0-0.3,0-0.3
			c0-0.5-0.1-0.8-0.3-1c-0.3-0.3-0.7-0.4-1.3-0.4c-0.5,0-0.9,0.1-1.2,0.3c-0.3,0.2-0.4,0.5-0.6,1l-1.1-0.2c0.1-0.5,0.3-0.9,0.5-1.2
			c0.2-0.3,0.6-0.5,1-0.7c0.4-0.2,0.9-0.2,1.5-0.2c0.6,0,1,0.1,1.4,0.2c0.4,0.1,0.6,0.3,0.8,0.5c0.2,0.2,0.3,0.5,0.4,0.8
			c0,0.2,0.1,0.5,0.1,1.1v1.5c0,1.1,0,1.7,0.1,2c0,0.3,0.1,0.6,0.3,0.8h-1.2C269.8,123.9,269.7,123.6,269.7,123.3z M269.6,120.8
			c-0.4,0.2-1,0.3-1.9,0.4c-0.5,0.1-0.8,0.1-1,0.2s-0.3,0.2-0.5,0.4c-0.1,0.2-0.2,0.3-0.2,0.5c0,0.3,0.1,0.6,0.3,0.8s0.6,0.3,1,0.3
			c0.4,0,0.8-0.1,1.2-0.3c0.3-0.2,0.6-0.5,0.8-0.8c0.1-0.3,0.2-0.6,0.2-1.1V120.8z"/>
		<path d="M275,123.1l0.2,1c-0.3,0.1-0.6,0.1-0.9,0.1c-0.4,0-0.7-0.1-1-0.2s-0.4-0.3-0.5-0.5c-0.1-0.2-0.1-0.7-0.1-1.3v-3.9h-0.8
			v-0.9h0.8v-1.7l1.1-0.7v2.4h1.1v0.9h-1.1v3.9c0,0.3,0,0.5,0.1,0.6s0.1,0.2,0.2,0.2s0.2,0.1,0.4,0.1
			C274.7,123.2,274.8,123.2,275,123.1z"/>
		<path d="M280.5,123.3c-0.4,0.4-0.8,0.6-1.2,0.8s-0.8,0.2-1.3,0.2c-0.7,0-1.3-0.2-1.7-0.5c-0.4-0.4-0.6-0.8-0.6-1.4
			c0-0.3,0.1-0.6,0.2-0.9c0.2-0.3,0.3-0.5,0.6-0.7s0.5-0.3,0.8-0.4c0.2-0.1,0.6-0.1,1-0.2c0.9-0.1,1.6-0.2,2-0.4c0-0.2,0-0.3,0-0.3
			c0-0.5-0.1-0.8-0.3-1c-0.3-0.3-0.7-0.4-1.3-0.4c-0.5,0-0.9,0.1-1.2,0.3c-0.3,0.2-0.4,0.5-0.6,1l-1.1-0.2c0.1-0.5,0.3-0.9,0.5-1.2
			c0.2-0.3,0.6-0.5,1-0.7c0.4-0.2,0.9-0.2,1.5-0.2c0.6,0,1,0.1,1.4,0.2c0.4,0.1,0.6,0.3,0.8,0.5c0.2,0.2,0.3,0.5,0.4,0.8
			c0,0.2,0.1,0.5,0.1,1.1v1.5c0,1.1,0,1.7,0.1,2c0,0.3,0.1,0.6,0.3,0.8h-1.2C280.7,123.9,280.6,123.6,280.5,123.3z M280.4,120.8
			c-0.4,0.2-1,0.3-1.9,0.4c-0.5,0.1-0.8,0.1-1,0.2s-0.3,0.2-0.5,0.4c-0.1,0.2-0.2,0.3-0.2,0.5c0,0.3,0.1,0.6,0.3,0.8s0.6,0.3,1,0.3
			c0.4,0,0.8-0.1,1.2-0.3c0.3-0.2,0.6-0.5,0.8-0.8c0.1-0.3,0.2-0.6,0.2-1.1V120.8z"/>
		<path d="M282.9,121.4v-1.1h3.5v1.1H282.9z"/>
		<path d="M288.8,124.2h-1.1v-9.3h1.1v3.3c0.5-0.6,1.1-0.9,1.8-0.9c0.4,0,0.8,0.1,1.2,0.3c0.4,0.2,0.7,0.4,0.9,0.7
			c0.2,0.3,0.4,0.7,0.6,1.1c0.1,0.4,0.2,0.9,0.2,1.4c0,1.2-0.3,2-0.9,2.7s-1.3,0.9-2.1,0.9c-0.8,0-1.4-0.3-1.9-1V124.2z
			 M288.7,120.7c0,0.8,0.1,1.4,0.3,1.8c0.4,0.6,0.8,0.9,1.5,0.9c0.5,0,0.9-0.2,1.3-0.7c0.4-0.4,0.5-1.1,0.5-1.9
			c0-0.9-0.2-1.5-0.5-1.9c-0.3-0.4-0.8-0.6-1.3-0.6c-0.5,0-0.9,0.2-1.3,0.7C288.9,119.3,288.7,119.9,288.7,120.7z"/>
		<path d="M294.9,116.2v-1.3h1.1v1.3H294.9z M294.9,124.2v-6.7h1.1v6.7H294.9z"/>
		<path d="M297.8,124.2v-6.7h1v1c0.5-0.7,1.2-1.1,2.1-1.1c0.4,0,0.8,0.1,1.1,0.2c0.3,0.1,0.6,0.3,0.8,0.6s0.3,0.5,0.4,0.8
			c0,0.2,0.1,0.6,0.1,1.1v4.1h-1.1v-4.1c0-0.5,0-0.8-0.1-1c-0.1-0.2-0.2-0.4-0.5-0.6c-0.2-0.1-0.5-0.2-0.8-0.2
			c-0.5,0-0.9,0.2-1.3,0.5s-0.5,0.9-0.5,1.8v3.7H297.8z"/>
		<path d="M309.4,124.2v-0.9c-0.4,0.7-1.1,1-1.9,1c-0.5,0-1-0.1-1.5-0.4c-0.5-0.3-0.8-0.7-1-1.2c-0.2-0.5-0.4-1.1-0.4-1.8
			c0-0.7,0.1-1.3,0.3-1.8c0.2-0.5,0.6-1,1-1.3s1-0.4,1.5-0.4c0.4,0,0.8,0.1,1.1,0.3c0.3,0.2,0.6,0.4,0.8,0.7v-3.3h1.1v9.3H309.4z
			 M305.8,120.8c0,0.9,0.2,1.5,0.5,1.9c0.4,0.4,0.8,0.6,1.3,0.6c0.5,0,0.9-0.2,1.3-0.6c0.3-0.4,0.5-1,0.5-1.9c0-0.9-0.2-1.6-0.5-2
			s-0.8-0.6-1.3-0.6c-0.5,0-0.9,0.2-1.3,0.6S305.8,119.9,305.8,120.8z"/>
		<path d="M318.3,118.7h-6.1v-1.1h6.1V118.7z M318.3,121.5h-6.1v-1.1h6.1V121.5z"/>
		<path d="M319.8,116.1v-1.3h1.2v1c0,0.6-0.1,1-0.2,1.2c-0.2,0.3-0.5,0.6-0.9,0.8l-0.3-0.5c0.2-0.1,0.4-0.2,0.5-0.4
			c0.1-0.2,0.2-0.5,0.2-0.8H319.8z"/>
		<path d="M325.3,123.1l0.2,1c-0.3,0.1-0.6,0.1-0.9,0.1c-0.4,0-0.7-0.1-1-0.2s-0.4-0.3-0.5-0.5c-0.1-0.2-0.1-0.7-0.1-1.3v-3.9h-0.8
			v-0.9h0.8v-1.7l1.1-0.7v2.4h1.1v0.9h-1.1v3.9c0,0.3,0,0.5,0.1,0.6s0.1,0.2,0.2,0.2s0.2,0.1,0.4,0.1
			C324.9,123.2,325,123.2,325.3,123.1z"/>
		<path d="M331,122l1.2,0.1c-0.2,0.7-0.5,1.2-1,1.6c-0.5,0.4-1.1,0.6-1.9,0.6c-1,0-1.8-0.3-2.3-0.9c-0.6-0.6-0.9-1.5-0.9-2.6
			c0-1.1,0.3-2,0.9-2.6s1.3-0.9,2.3-0.9c0.9,0,1.6,0.3,2.2,0.9c0.6,0.6,0.9,1.5,0.9,2.6c0,0.1,0,0.2,0,0.3h-5c0,0.7,0.3,1.3,0.6,1.7
			s0.8,0.6,1.4,0.6c0.4,0,0.8-0.1,1.1-0.3C330.6,122.8,330.8,122.5,331,122z M327.2,120.1h3.8c-0.1-0.6-0.2-1-0.4-1.3
			c-0.4-0.4-0.8-0.7-1.4-0.7c-0.5,0-1,0.2-1.3,0.5S327.3,119.5,327.2,120.1z"/>
		<path d="M332.8,124.2l2.5-3.5l-2.3-3.2h1.4l1,1.6c0.2,0.3,0.4,0.6,0.5,0.8c0.2-0.3,0.4-0.5,0.5-0.7l1.1-1.6h1.4l-2.3,3.2l2.5,3.6
			h-1.4l-1.4-2.1l-0.4-0.6l-1.8,2.7H332.8z"/>
		<path d="M342.6,123.1l0.2,1c-0.3,0.1-0.6,0.1-0.9,0.1c-0.4,0-0.7-0.1-1-0.2s-0.4-0.3-0.5-0.5c-0.1-0.2-0.1-0.7-0.1-1.3v-3.9h-0.8
			v-0.9h0.8v-1.7l1.1-0.7v2.4h1.1v0.9h-1.1v3.9c0,0.3,0,0.5,0.1,0.6s0.1,0.2,0.2,0.2s0.2,0.1,0.4,0.1
			C342.2,123.2,342.4,123.2,342.6,123.1z"/>
		<path d="M344,118.7v-1.3h1.3v1.3H344z M344,124.2v-1.3h1.3v1.3H344z"/>
		<path d="M350.9,124.2v-9.3h1.1v9.3H350.9z"/>
		<path d="M358.2,123.3c-0.4,0.4-0.8,0.6-1.2,0.8s-0.8,0.2-1.3,0.2c-0.7,0-1.3-0.2-1.7-0.5c-0.4-0.4-0.6-0.8-0.6-1.4
			c0-0.3,0.1-0.6,0.2-0.9c0.2-0.3,0.3-0.5,0.6-0.7s0.5-0.3,0.8-0.4c0.2-0.1,0.6-0.1,1-0.2c0.9-0.1,1.6-0.2,2-0.4c0-0.2,0-0.3,0-0.3
			c0-0.5-0.1-0.8-0.3-1c-0.3-0.3-0.7-0.4-1.3-0.4c-0.5,0-0.9,0.1-1.2,0.3c-0.3,0.2-0.4,0.5-0.6,1l-1.1-0.2c0.1-0.5,0.3-0.9,0.5-1.2
			c0.2-0.3,0.6-0.5,1-0.7c0.4-0.2,0.9-0.2,1.5-0.2c0.6,0,1,0.1,1.4,0.2c0.4,0.1,0.6,0.3,0.8,0.5c0.2,0.2,0.3,0.5,0.4,0.8
			c0,0.2,0.1,0.5,0.1,1.1v1.5c0,1.1,0,1.7,0.1,2c0,0.3,0.1,0.6,0.3,0.8h-1.2C358.3,123.9,358.3,123.6,358.2,123.3z M358.1,120.8
			c-0.4,0.2-1,0.3-1.9,0.4c-0.5,0.1-0.8,0.1-1,0.2s-0.3,0.2-0.5,0.4c-0.1,0.2-0.2,0.3-0.2,0.5c0,0.3,0.1,0.6,0.3,0.8s0.6,0.3,1,0.3
			c0.4,0,0.8-0.1,1.2-0.3c0.3-0.2,0.6-0.5,0.8-0.8c0.1-0.3,0.2-0.6,0.2-1.1V120.8z"/>
		<path d="M362.1,124.2h-1.1v-9.3h1.1v3.3c0.5-0.6,1.1-0.9,1.8-0.9c0.4,0,0.8,0.1,1.2,0.3c0.4,0.2,0.7,0.4,0.9,0.7
			c0.2,0.3,0.4,0.7,0.6,1.1c0.1,0.4,0.2,0.9,0.2,1.4c0,1.2-0.3,2-0.9,2.7s-1.3,0.9-2.1,0.9c-0.8,0-1.4-0.3-1.9-1V124.2z
			 M362.1,120.7c0,0.8,0.1,1.4,0.3,1.8c0.4,0.6,0.8,0.9,1.5,0.9c0.5,0,0.9-0.2,1.3-0.7c0.4-0.4,0.5-1.1,0.5-1.9
			c0-0.9-0.2-1.5-0.5-1.9c-0.3-0.4-0.8-0.6-1.3-0.6c-0.5,0-0.9,0.2-1.3,0.7C362.3,119.3,362.1,119.9,362.1,120.7z"/>
		<path d="M372.9,122l1.2,0.1c-0.2,0.7-0.5,1.2-1,1.6c-0.5,0.4-1.1,0.6-1.9,0.6c-1,0-1.8-0.3-2.3-0.9c-0.6-0.6-0.9-1.5-0.9-2.6
			c0-1.1,0.3-2,0.9-2.6s1.3-0.9,2.3-0.9c0.9,0,1.6,0.3,2.2,0.9c0.6,0.6,0.9,1.5,0.9,2.6c0,0.1,0,0.2,0,0.3h-5c0,0.7,0.3,1.3,0.6,1.7
			s0.8,0.6,1.4,0.6c0.4,0,0.8-0.1,1.1-0.3C372.5,122.8,372.7,122.5,372.9,122z M369.2,120.1h3.8c-0.1-0.6-0.2-1-0.4-1.3
			c-0.4-0.4-0.8-0.7-1.4-0.7c-0.5,0-1,0.2-1.3,0.5S369.2,119.5,369.2,120.1z"/>
		<path d="M375.5,124.2v-9.3h1.1v9.3H375.5z"/>
		<path d="M378.3,116.1v-1.3h1.2v1c0,0.6-0.1,1-0.2,1.2c-0.2,0.3-0.5,0.6-0.9,0.8l-0.3-0.5c0.2-0.1,0.4-0.2,0.5-0.4
			c0.1-0.2,0.2-0.5,0.2-0.8H378.3z"/>
		<path d="M387.3,120.1l-6.2,2.6v-1.1l4.9-2l-4.9-2v-1.1l6.2,2.6V120.1z"/>
	</g>
</g>
<g id="Modules">
	<g id="component">
		<path class="st2" d="M314.4,186.1h-97.2c-1.7,0-3-1.3-3-3v-25.4c0-1.7,1.3-3,3-3h97.2c1.7,0,3,1.3,3,3v25.4
			C317.4,184.8,316.1,186.1,314.4,186.1z"/>
		<g>
			<path class="st3" d="M226.4,175.2c-0.4,0.2-1.4,0.5-2.6,0.5c-2.8,0-4.6-1.9-4.6-4.7c0-2.8,1.9-4.9,4.9-4.9c1,0,1.9,0.2,2.3,0.5
				l-0.4,1.3c-0.4-0.2-1-0.4-1.9-0.4c-2.1,0-3.2,1.6-3.2,3.5c0,2.1,1.4,3.4,3.2,3.4c0.9,0,1.6-0.2,2.1-0.5L226.4,175.2z"/>
			<path class="st3" d="M236.6,170.8c0,3.4-2.4,4.9-4.6,4.9c-2.5,0-4.4-1.8-4.4-4.7c0-3.1,2-4.9,4.6-4.9
				C234.8,166.1,236.6,168,236.6,170.8z M229.3,170.9c0,2,1.2,3.5,2.8,3.5c1.6,0,2.8-1.5,2.8-3.6c0-1.6-0.8-3.5-2.8-3.5
				S229.3,169.2,229.3,170.9z"/>
			<path class="st3" d="M238.7,168.8c0-1,0-1.7-0.1-2.5h1.5l0.1,1.5h0.1c0.5-0.9,1.4-1.7,2.9-1.7c1.3,0,2.2,0.8,2.6,1.8h0
				c0.3-0.5,0.6-0.9,1-1.2c0.6-0.4,1.2-0.6,2-0.6c1.2,0,3,0.8,3,4v5.4h-1.6v-5.2c0-1.8-0.6-2.8-2-2.8c-1,0-1.7,0.7-2,1.5
				c-0.1,0.2-0.1,0.5-0.1,0.8v5.7h-1.6V170c0-1.5-0.6-2.5-1.9-2.5c-1,0-1.8,0.8-2.1,1.7c-0.1,0.2-0.1,0.5-0.1,0.8v5.5h-1.6V168.8z"
				/>
			<path class="st3" d="M254.6,169.3c0-1.2,0-2.1-0.1-3h1.5l0.1,1.6h0c0.7-1.1,1.8-1.8,3.3-1.8c2.2,0,3.9,1.9,3.9,4.7
				c0,3.3-2,4.9-4.2,4.9c-1.2,0-2.3-0.5-2.8-1.4h0v5h-1.7V169.3z M256.2,171.8c0,0.2,0,0.5,0.1,0.7c0.3,1.2,1.3,2,2.5,2
				c1.8,0,2.8-1.4,2.8-3.6c0-1.8-1-3.4-2.7-3.4c-1.1,0-2.2,0.8-2.5,2.1c-0.1,0.2-0.1,0.5-0.1,0.7V171.8z"/>
			<path class="st3" d="M273.7,170.8c0,3.4-2.4,4.9-4.6,4.9c-2.5,0-4.4-1.8-4.4-4.7c0-3.1,2-4.9,4.6-4.9
				C271.9,166.1,273.7,168,273.7,170.8z M266.4,170.9c0,2,1.2,3.5,2.8,3.5c1.6,0,2.8-1.5,2.8-3.6c0-1.6-0.8-3.5-2.8-3.5
				S266.4,169.2,266.4,170.9z"/>
			<path class="st3" d="M275.8,168.8c0-1,0-1.7-0.1-2.5h1.5l0.1,1.5h0c0.5-0.9,1.5-1.7,3-1.7c1.3,0,3.2,0.8,3.2,3.9v5.5H282v-5.3
				c0-1.5-0.6-2.7-2.1-2.7c-1.1,0-2,0.8-2.2,1.7c-0.1,0.2-0.1,0.5-0.1,0.8v5.5h-1.7V168.8z"/>
			<path class="st3" d="M287.3,171.2c0,2.3,1.5,3.2,3.2,3.2c1.2,0,1.9-0.2,2.5-0.5l0.3,1.2c-0.6,0.3-1.6,0.6-3.1,0.6
				c-2.8,0-4.5-1.9-4.5-4.6s1.6-5,4.3-5c3,0,3.8,2.6,3.8,4.3c0,0.3,0,0.6-0.1,0.8H287.3z M292.2,170c0-1.1-0.4-2.7-2.3-2.7
				c-1.7,0-2.4,1.6-2.6,2.7H292.2z"/>
			<path class="st3" d="M295.9,168.8c0-1,0-1.7-0.1-2.5h1.5l0.1,1.5h0c0.5-0.9,1.5-1.7,3-1.7c1.3,0,3.2,0.8,3.2,3.9v5.5H302v-5.3
				c0-1.5-0.6-2.7-2.1-2.7c-1.1,0-2,0.8-2.2,1.7c-0.1,0.2-0.1,0.5-0.1,0.8v5.5h-1.7V168.8z"/>
			<path class="st3" d="M308.3,163.7v2.6h2.4v1.3h-2.4v5c0,1.1,0.3,1.8,1.3,1.8c0.4,0,0.8-0.1,1-0.1l0.1,1.3
				c-0.3,0.1-0.8,0.2-1.5,0.2c-0.8,0-1.4-0.2-1.8-0.7c-0.5-0.5-0.6-1.3-0.6-2.4v-5h-1.4v-1.3h1.4v-2.2L308.3,163.7z"/>
		</g>
		<path class="st2" d="M426,300H217.2c-1.7,0-3-1.3-3-3v-25.4c0-1.7,1.3-3,3-3H426c1.7,0,3,1.3,3,3V297C429,298.7,427.7,300,426,300
			z"/>
		<g>
			<path class="st3" d="M219.8,289.4c0-0.6,0.1-1.6,0.1-2.4v-11.1h1.7v5.8h0c0.6-1,1.7-1.7,3.1-1.7c2.3,0,3.9,1.9,3.9,4.7
				c0,3.3-2.1,4.9-4.1,4.9c-1.3,0-2.4-0.5-3.1-1.7h-0.1l-0.1,1.5H219.8z M221.5,285.7c0,0.2,0,0.4,0.1,0.6c0.3,1.2,1.3,2,2.5,2
				c1.7,0,2.8-1.4,2.8-3.5c0-1.8-1-3.4-2.7-3.4c-1.1,0-2.2,0.8-2.5,2.1c0,0.2-0.1,0.4-0.1,0.7V285.7z"/>
			<path class="st3" d="M230.7,283.1c0-1.1,0-2-0.1-2.9h1.5l0.1,1.8h0.1c0.4-1.2,1.4-2,2.5-2c0.2,0,0.3,0,0.5,0.1v1.6
				c-0.2,0-0.3-0.1-0.6-0.1c-1.2,0-2,0.9-2.2,2.1c0,0.2-0.1,0.5-0.1,0.8v4.9h-1.7V283.1z"/>
			<path class="st3" d="M245,284.7c0,3.4-2.4,4.9-4.6,4.9c-2.5,0-4.4-1.8-4.4-4.7c0-3.1,2-4.9,4.6-4.9
				C243.3,280,245,281.9,245,284.7z M237.7,284.8c0,2,1.2,3.5,2.8,3.5c1.6,0,2.8-1.5,2.8-3.6c0-1.6-0.8-3.5-2.8-3.5
				S237.7,283.1,237.7,284.8z"/>
			<path class="st3" d="M252.2,289.4l-0.1-1.2h-0.1c-0.5,0.7-1.5,1.4-2.8,1.4c-1.9,0-2.8-1.3-2.8-2.6c0-2.2,2-3.4,5.5-3.4v-0.2
				c0-0.8-0.2-2.1-2.1-2.1c-0.9,0-1.7,0.3-2.4,0.7l-0.4-1.1c0.8-0.5,1.9-0.8,3-0.8c2.8,0,3.5,1.9,3.5,3.8v3.4c0,0.8,0,1.6,0.2,2.2
				H252.2z M252,284.7c-1.8,0-3.9,0.3-3.9,2.1c0,1.1,0.7,1.6,1.6,1.6c1.2,0,2-0.8,2.2-1.5c0.1-0.2,0.1-0.4,0.1-0.5V284.7z"/>
			<path class="st3" d="M264.3,275.9V287c0,0.8,0,1.7,0.1,2.4h-1.5l-0.1-1.6h0c-0.5,1-1.6,1.8-3.1,1.8c-2.2,0-3.9-1.9-3.9-4.7
				c0-3.1,1.9-4.9,4.1-4.9c1.4,0,2.4,0.7,2.8,1.4h0v-5.5H264.3z M262.6,283.9c0-0.2,0-0.5-0.1-0.7c-0.2-1.1-1.2-1.9-2.4-1.9
				c-1.7,0-2.8,1.5-2.8,3.6c0,1.9,0.9,3.4,2.7,3.4c1.1,0,2.1-0.7,2.5-2c0.1-0.2,0.1-0.5,0.1-0.7V283.9z"/>
			<path class="st3" d="M273.6,289c-0.4,0.2-1.4,0.5-2.6,0.5c-2.8,0-4.6-1.9-4.6-4.7c0-2.8,1.9-4.9,4.9-4.9c1,0,1.9,0.2,2.3,0.5
				l-0.4,1.3c-0.4-0.2-1-0.4-1.9-0.4c-2.1,0-3.2,1.6-3.2,3.5c0,2.1,1.4,3.4,3.2,3.4c0.9,0,1.6-0.2,2.1-0.5L273.6,289z"/>
			<path class="st3" d="M280.6,289.4l-0.1-1.2h-0.1c-0.5,0.7-1.5,1.4-2.8,1.4c-1.9,0-2.8-1.3-2.8-2.6c0-2.2,2-3.4,5.5-3.4v-0.2
				c0-0.8-0.2-2.1-2.1-2.1c-0.9,0-1.7,0.3-2.4,0.7l-0.4-1.1c0.8-0.5,1.9-0.8,3-0.8c2.8,0,3.5,1.9,3.5,3.8v3.4c0,0.8,0,1.6,0.2,2.2
				H280.6z M280.4,284.7c-1.8,0-3.9,0.3-3.9,2.1c0,1.1,0.7,1.6,1.6,1.6c1.2,0,2-0.8,2.2-1.5c0.1-0.2,0.1-0.4,0.1-0.5V284.7z"/>
			<path class="st3" d="M284.5,287.7c0.5,0.3,1.4,0.7,2.2,0.7c1.2,0,1.8-0.6,1.8-1.4c0-0.8-0.5-1.2-1.7-1.7
				c-1.7-0.6-2.4-1.5-2.4-2.6c0-1.5,1.2-2.7,3.2-2.7c0.9,0,1.7,0.3,2.3,0.6l-0.4,1.2c-0.4-0.2-1-0.5-1.9-0.5c-1,0-1.5,0.6-1.5,1.3
				c0,0.8,0.6,1.1,1.7,1.6c1.6,0.6,2.4,1.4,2.4,2.8c0,1.6-1.3,2.8-3.4,2.8c-1,0-1.9-0.2-2.6-0.6L284.5,287.7z"/>
			<path class="st3" d="M294.2,277.6v2.6h2.4v1.3h-2.4v5c0,1.1,0.3,1.8,1.3,1.8c0.4,0,0.8-0.1,1-0.1l0.1,1.3
				c-0.3,0.1-0.8,0.2-1.5,0.2c-0.8,0-1.4-0.2-1.8-0.7c-0.5-0.5-0.6-1.3-0.6-2.4v-5h-1.4v-1.3h1.4V278L294.2,277.6z"/>
			<path class="st3" d="M303.6,289.4l-0.1-1.2h-0.1c-0.5,0.7-1.5,1.4-2.8,1.4c-1.9,0-2.8-1.3-2.8-2.6c0-2.2,2-3.4,5.5-3.4v-0.2
				c0-0.8-0.2-2.1-2.1-2.1c-0.9,0-1.7,0.3-2.4,0.7l-0.4-1.1c0.8-0.5,1.9-0.8,3-0.8c2.8,0,3.5,1.9,3.5,3.8v3.4c0,0.8,0,1.6,0.2,2.2
				H303.6z M303.4,284.7c-1.8,0-3.9,0.3-3.9,2.1c0,1.1,0.7,1.6,1.6,1.6c1.2,0,2-0.8,2.2-1.5c0.1-0.2,0.1-0.4,0.1-0.5V284.7z"/>
			<path class="st3" d="M307.6,289.4c0-0.6,0.1-1.6,0.1-2.4v-11.1h1.7v5.8h0c0.6-1,1.7-1.7,3.1-1.7c2.3,0,3.9,1.9,3.9,4.7
				c0,3.3-2.1,4.9-4.1,4.9c-1.3,0-2.4-0.5-3.1-1.7h-0.1l-0.1,1.5H307.6z M309.3,285.7c0,0.2,0,0.4,0.1,0.6c0.3,1.2,1.3,2,2.5,2
				c1.7,0,2.8-1.4,2.8-3.5c0-1.8-1-3.4-2.7-3.4c-1.1,0-2.2,0.8-2.5,2.1c0,0.2-0.1,0.4-0.1,0.7V285.7z"/>
			<path class="st3" d="M318.5,275.9h1.7v13.5h-1.7V275.9z"/>
			<path class="st3" d="M323.9,285.1c0,2.3,1.5,3.2,3.2,3.2c1.2,0,1.9-0.2,2.5-0.5l0.3,1.2c-0.6,0.3-1.6,0.6-3.1,0.6
				c-2.8,0-4.5-1.9-4.5-4.6s1.6-5,4.3-5c3,0,3.8,2.6,3.8,4.3c0,0.3,0,0.6-0.1,0.8H323.9z M328.8,283.9c0-1.1-0.4-2.7-2.3-2.7
				c-1.7,0-2.4,1.6-2.6,2.7H328.8z"/>
			<path class="st3" d="M335.1,290.2l5.3-13.8h1.3l-5.3,13.8H335.1z"/>
			<path class="st3" d="M347.1,283.1c0-1.1,0-2-0.1-2.9h1.5l0.1,1.8h0.1c0.4-1.2,1.4-2,2.5-2c0.2,0,0.3,0,0.5,0.1v1.6
				c-0.2,0-0.3-0.1-0.6-0.1c-1.2,0-2,0.9-2.2,2.1c0,0.2-0.1,0.5-0.1,0.8v4.9h-1.7V283.1z"/>
			<path class="st3" d="M354,285.1c0,2.3,1.5,3.2,3.2,3.2c1.2,0,1.9-0.2,2.5-0.5l0.3,1.2c-0.6,0.3-1.6,0.6-3.1,0.6
				c-2.8,0-4.5-1.9-4.5-4.6s1.6-5,4.3-5c3,0,3.8,2.6,3.8,4.3c0,0.3,0,0.6-0.1,0.8H354z M358.9,283.9c0-1.1-0.4-2.7-2.3-2.7
				c-1.7,0-2.4,1.6-2.6,2.7H358.9z"/>
			<path class="st3" d="M369.1,289c-0.4,0.2-1.4,0.5-2.6,0.5c-2.8,0-4.6-1.9-4.6-4.7c0-2.8,1.9-4.9,4.9-4.9c1,0,1.9,0.2,2.3,0.5
				l-0.4,1.3c-0.4-0.2-1-0.4-1.9-0.4c-2.1,0-3.2,1.6-3.2,3.5c0,2.1,1.4,3.4,3.2,3.4c0.9,0,1.6-0.2,2.1-0.5L369.1,289z"/>
			<path class="st3" d="M371.9,285.1c0,2.3,1.5,3.2,3.2,3.2c1.2,0,1.9-0.2,2.5-0.5l0.3,1.2c-0.6,0.3-1.6,0.6-3.1,0.6
				c-2.8,0-4.5-1.9-4.5-4.6s1.6-5,4.3-5c3,0,3.8,2.6,3.8,4.3c0,0.3,0,0.6-0.1,0.8H371.9z M376.8,283.9c0-1.1-0.4-2.7-2.3-2.7
				c-1.7,0-2.4,1.6-2.6,2.7H376.8z"/>
			<path class="st3" d="M382.4,277.6c0,0.6-0.4,1-1.1,1c-0.6,0-1-0.5-1-1c0-0.6,0.4-1,1-1C382,276.6,382.4,277,382.4,277.6z
				 M380.5,289.4v-9.2h1.7v9.2H380.5z"/>
			<path class="st3" d="M385.6,280.2l1.8,5.2c0.3,0.8,0.6,1.6,0.7,2.4h0.1c0.2-0.8,0.5-1.5,0.8-2.4l1.8-5.2h1.7l-3.6,9.2h-1.6
				l-3.5-9.2H385.6z"/>
			<path class="st3" d="M399.1,289.4l-0.1-1.2h-0.1c-0.5,0.7-1.5,1.4-2.8,1.4c-1.9,0-2.8-1.3-2.8-2.6c0-2.2,2-3.4,5.5-3.4v-0.2
				c0-0.8-0.2-2.1-2.1-2.1c-0.9,0-1.7,0.3-2.4,0.7l-0.4-1.1c0.8-0.5,1.9-0.8,3-0.8c2.8,0,3.5,1.9,3.5,3.8v3.4c0,0.8,0,1.6,0.2,2.2
				H399.1z M398.9,284.7c-1.8,0-3.9,0.3-3.9,2.1c0,1.1,0.7,1.6,1.6,1.6c1.2,0,2-0.8,2.2-1.5c0.1-0.2,0.1-0.4,0.1-0.5V284.7z"/>
			<path class="st3" d="M403.1,289.4c0-0.6,0.1-1.6,0.1-2.4v-11.1h1.7v5.8h0c0.6-1,1.7-1.7,3.1-1.7c2.3,0,3.9,1.9,3.9,4.7
				c0,3.3-2.1,4.9-4.1,4.9c-1.3,0-2.4-0.5-3.1-1.7h-0.1l-0.1,1.5H403.1z M404.8,285.7c0,0.2,0,0.4,0.1,0.6c0.3,1.2,1.3,2,2.5,2
				c1.7,0,2.8-1.4,2.8-3.5c0-1.8-1-3.4-2.7-3.4c-1.1,0-2.2,0.8-2.5,2.1c0,0.2-0.1,0.4-0.1,0.7V285.7z"/>
			<path class="st3" d="M414,275.9h1.7v13.5H414V275.9z"/>
			<path class="st3" d="M419.4,285.1c0,2.3,1.5,3.2,3.2,3.2c1.2,0,1.9-0.2,2.5-0.5l0.3,1.2c-0.6,0.3-1.6,0.6-3.1,0.6
				c-2.8,0-4.5-1.9-4.5-4.6s1.6-5,4.3-5c3,0,3.8,2.6,3.8,4.3c0,0.3,0,0.6-0.1,0.8H419.4z M424.3,283.9c0-1.1-0.4-2.7-2.3-2.7
				c-1.7,0-2.4,1.6-2.6,2.7H424.3z"/>
		</g>
	</g>
	<g id="broadcastable-receivable">
	</g>
	<g id="collection">
		<path class="st2" d="M408.8,186.1h-80.6c-1.7,0-3-1.3-3-3v-25.4c0-1.7,1.3-3,3-3h80.6c1.7,0,3,1.3,3,3v25.4
			C411.8,184.8,410.4,186.1,408.8,186.1z"/>
		<g>
			<path class="st3" d="M337.4,175.2c-0.4,0.2-1.4,0.5-2.6,0.5c-2.8,0-4.6-1.9-4.6-4.7c0-2.8,1.9-4.9,4.9-4.9c1,0,1.9,0.2,2.3,0.5
				l-0.4,1.3c-0.4-0.2-1-0.4-1.9-0.4c-2.1,0-3.2,1.6-3.2,3.5c0,2.1,1.4,3.4,3.2,3.4c0.9,0,1.6-0.2,2.1-0.5L337.4,175.2z"/>
			<path class="st3" d="M347.6,170.8c0,3.4-2.4,4.9-4.6,4.9c-2.5,0-4.4-1.8-4.4-4.7c0-3.1,2-4.9,4.6-4.9
				C345.8,166.1,347.6,168,347.6,170.8z M340.3,170.9c0,2,1.2,3.5,2.8,3.5c1.6,0,2.8-1.5,2.8-3.6c0-1.6-0.8-3.5-2.8-3.5
				S340.3,169.2,340.3,170.9z"/>
			<path class="st3" d="M349.7,162h1.7v13.5h-1.7V162z"/>
			<path class="st3" d="M354.2,162h1.7v13.5h-1.7V162z"/>
			<path class="st3" d="M359.6,171.2c0,2.3,1.5,3.2,3.2,3.2c1.2,0,1.9-0.2,2.5-0.5l0.3,1.2c-0.6,0.3-1.6,0.6-3.1,0.6
				c-2.8,0-4.5-1.9-4.5-4.6s1.6-5,4.3-5c3,0,3.8,2.6,3.8,4.3c0,0.3,0,0.6-0.1,0.8H359.6z M364.5,170c0-1.1-0.4-2.7-2.3-2.7
				c-1.7,0-2.4,1.6-2.6,2.7H364.5z"/>
			<path class="st3" d="M374.8,175.2c-0.4,0.2-1.4,0.5-2.6,0.5c-2.8,0-4.6-1.9-4.6-4.7c0-2.8,1.9-4.9,4.9-4.9c1,0,1.9,0.2,2.3,0.5
				l-0.4,1.3c-0.4-0.2-1-0.4-1.9-0.4c-2.1,0-3.2,1.6-3.2,3.5c0,2.1,1.4,3.4,3.2,3.4c0.9,0,1.6-0.2,2.1-0.5L374.8,175.2z"/>
			<path class="st3" d="M379,163.7v2.6h2.4v1.3H379v5c0,1.1,0.3,1.8,1.3,1.8c0.4,0,0.8-0.1,1-0.1l0.1,1.3c-0.3,0.1-0.8,0.2-1.5,0.2
				c-0.8,0-1.4-0.2-1.8-0.7c-0.5-0.5-0.6-1.3-0.6-2.4v-5h-1.4v-1.3h1.4v-2.2L379,163.7z"/>
			<path class="st3" d="M385.1,163.7c0,0.6-0.4,1-1.1,1c-0.6,0-1-0.5-1-1c0-0.6,0.4-1,1-1C384.7,162.7,385.1,163.1,385.1,163.7z
				 M383.3,175.5v-9.2h1.7v9.2H383.3z"/>
			<path class="st3" d="M396,170.8c0,3.4-2.4,4.9-4.6,4.9c-2.5,0-4.4-1.8-4.4-4.7c0-3.1,2-4.9,4.6-4.9
				C394.2,166.1,396,168,396,170.8z M388.7,170.9c0,2,1.2,3.5,2.8,3.5c1.6,0,2.8-1.5,2.8-3.6c0-1.6-0.8-3.5-2.8-3.5
				S388.7,169.2,388.7,170.9z"/>
			<path class="st3" d="M398.1,168.8c0-1,0-1.7-0.1-2.5h1.5l0.1,1.5h0c0.5-0.9,1.5-1.7,3-1.7c1.3,0,3.2,0.8,3.2,3.9v5.5h-1.7v-5.3
				c0-1.5-0.6-2.7-2.1-2.7c-1.1,0-2,0.8-2.2,1.7c-0.1,0.2-0.1,0.5-0.1,0.8v5.5h-1.7V168.8z"/>
		</g>
	</g>
	<g id="namespace_1_">
		<path class="st2" d="M381.9,261.5h-97.2c-1.7,0-3-1.3-3-3v-25.4c0-1.7,1.3-3,3-3h97.2c1.7,0,3,1.3,3,3v25.4
			C384.9,260.1,383.6,261.5,381.9,261.5z"/>
		<g>
			<path class="st3" d="M287.4,244.1c0-1,0-1.7-0.1-2.5h1.5l0.1,1.5h0c0.5-0.9,1.5-1.7,3-1.7c1.3,0,3.2,0.8,3.2,3.9v5.5h-1.7v-5.3
				c0-1.5-0.6-2.7-2.1-2.7c-1.1,0-2,0.8-2.2,1.7c-0.1,0.2-0.1,0.5-0.1,0.8v5.5h-1.7V244.1z"/>
			<path class="st3" d="M303,250.9l-0.1-1.2h-0.1c-0.5,0.7-1.5,1.4-2.8,1.4c-1.9,0-2.8-1.3-2.8-2.6c0-2.2,2-3.4,5.5-3.4v-0.2
				c0-0.8-0.2-2.1-2.1-2.1c-0.9,0-1.7,0.3-2.4,0.7l-0.4-1.1c0.8-0.5,1.9-0.8,3-0.8c2.8,0,3.5,1.9,3.5,3.8v3.4c0,0.8,0,1.6,0.2,2.2
				H303z M302.8,246.2c-1.8,0-3.9,0.3-3.9,2.1c0,1.1,0.7,1.6,1.6,1.6c1.2,0,2-0.8,2.2-1.5c0.1-0.2,0.1-0.4,0.1-0.5V246.2z"/>
			<path class="st3" d="M307.1,244.1c0-1,0-1.7-0.1-2.5h1.5l0.1,1.5h0.1c0.5-0.9,1.4-1.7,2.9-1.7c1.3,0,2.2,0.8,2.6,1.8h0
				c0.3-0.5,0.6-0.9,1-1.2c0.6-0.4,1.2-0.6,2-0.6c1.2,0,3,0.8,3,4v5.4h-1.6v-5.2c0-1.8-0.6-2.8-2-2.8c-1,0-1.7,0.7-2,1.5
				c-0.1,0.2-0.1,0.5-0.1,0.8v5.7h-1.6v-5.5c0-1.5-0.6-2.5-1.9-2.5c-1,0-1.8,0.8-2.1,1.7c-0.1,0.2-0.1,0.5-0.1,0.8v5.5h-1.6V244.1z"
				/>
			<path class="st3" d="M323.9,246.6c0,2.3,1.5,3.2,3.2,3.2c1.2,0,1.9-0.2,2.5-0.5l0.3,1.2c-0.6,0.3-1.6,0.6-3.1,0.6
				c-2.8,0-4.5-1.9-4.5-4.6s1.6-5,4.3-5c3,0,3.8,2.6,3.8,4.3c0,0.3,0,0.6-0.1,0.8H323.9z M328.8,245.4c0-1.1-0.4-2.7-2.3-2.7
				c-1.7,0-2.4,1.6-2.6,2.7H328.8z"/>
			<path class="st3" d="M332.2,249.1c0.5,0.3,1.4,0.7,2.2,0.7c1.2,0,1.8-0.6,1.8-1.4c0-0.8-0.5-1.2-1.7-1.7
				c-1.7-0.6-2.4-1.5-2.4-2.6c0-1.5,1.2-2.7,3.2-2.7c0.9,0,1.7,0.3,2.3,0.6l-0.4,1.2c-0.4-0.2-1-0.5-1.9-0.5c-1,0-1.5,0.6-1.5,1.3
				c0,0.8,0.6,1.1,1.7,1.6c1.6,0.6,2.4,1.4,2.4,2.8c0,1.6-1.3,2.8-3.4,2.8c-1,0-1.9-0.2-2.6-0.6L332.2,249.1z"/>
			<path class="st3" d="M340,244.7c0-1.2,0-2.1-0.1-3h1.5l0.1,1.6h0c0.7-1.1,1.8-1.8,3.3-1.8c2.2,0,3.9,1.9,3.9,4.7
				c0,3.3-2,4.9-4.2,4.9c-1.2,0-2.3-0.5-2.8-1.4h0v5H340V244.7z M341.6,247.1c0,0.2,0,0.5,0.1,0.7c0.3,1.2,1.3,2,2.5,2
				c1.8,0,2.8-1.4,2.8-3.6c0-1.8-1-3.4-2.7-3.4c-1.1,0-2.2,0.8-2.5,2.1c-0.1,0.2-0.1,0.5-0.1,0.7V247.1z"/>
			<path class="st3" d="M355.9,250.9l-0.1-1.2h-0.1c-0.5,0.7-1.5,1.4-2.8,1.4c-1.9,0-2.8-1.3-2.8-2.6c0-2.2,2-3.4,5.5-3.4v-0.2
				c0-0.8-0.2-2.1-2.1-2.1c-0.9,0-1.7,0.3-2.4,0.7l-0.4-1.1c0.8-0.5,1.9-0.8,3-0.8c2.8,0,3.5,1.9,3.5,3.8v3.4c0,0.8,0,1.6,0.2,2.2
				H355.9z M355.6,246.2c-1.8,0-3.9,0.3-3.9,2.1c0,1.1,0.7,1.6,1.6,1.6c1.2,0,2-0.8,2.2-1.5c0.1-0.2,0.1-0.4,0.1-0.5V246.2z"/>
			<path class="st3" d="M366.5,250.5c-0.4,0.2-1.4,0.5-2.6,0.5c-2.8,0-4.6-1.9-4.6-4.7c0-2.8,1.9-4.9,4.9-4.9c1,0,1.9,0.2,2.3,0.5
				l-0.4,1.3c-0.4-0.2-1-0.4-1.9-0.4c-2.1,0-3.2,1.6-3.2,3.5c0,2.1,1.4,3.4,3.2,3.4c0.9,0,1.6-0.2,2.1-0.5L366.5,250.5z"/>
			<path class="st3" d="M369.3,246.6c0,2.3,1.5,3.2,3.2,3.2c1.2,0,1.9-0.2,2.5-0.5l0.3,1.2c-0.6,0.3-1.6,0.6-3.1,0.6
				c-2.8,0-4.5-1.9-4.5-4.6s1.6-5,4.3-5c3,0,3.8,2.6,3.8,4.3c0,0.3,0,0.6-0.1,0.8H369.3z M374.2,245.4c0-1.1-0.4-2.7-2.3-2.7
				c-1.7,0-2.4,1.6-2.6,2.7H374.2z"/>
		</g>
	</g>
	<g id="viewModel">
		<path class="st2" d="M307,223.4h-89.8c-1.7,0-3-1.3-3-3V195c0-1.7,1.3-3,3-3H307c1.7,0,3,1.3,3,3v25.4
			C310,222,308.7,223.4,307,223.4z"/>
		<g>
			<path class="st3" d="M220.5,203.6l1.8,5.2c0.3,0.8,0.6,1.6,0.7,2.4h0.1c0.2-0.8,0.5-1.5,0.8-2.4l1.8-5.2h1.7l-3.6,9.2h-1.6
				l-3.5-9.2H220.5z"/>
			<path class="st3" d="M230.9,201c0,0.6-0.4,1-1.1,1c-0.6,0-1-0.5-1-1c0-0.6,0.4-1,1-1C230.5,199.9,230.9,200.4,230.9,201z
				 M229,212.7v-9.2h1.7v9.2H229z"/>
			<path class="st3" d="M234.4,208.5c0,2.3,1.5,3.2,3.2,3.2c1.2,0,1.9-0.2,2.5-0.5l0.3,1.2c-0.6,0.3-1.6,0.6-3.1,0.6
				c-2.8,0-4.5-1.9-4.5-4.6s1.6-5,4.3-5c3,0,3.8,2.6,3.8,4.3c0,0.3,0,0.6-0.1,0.8H234.4z M239.3,207.3c0-1.1-0.4-2.7-2.3-2.7
				c-1.7,0-2.4,1.6-2.6,2.7H239.3z"/>
			<path class="st3" d="M243.7,203.6l1.2,4.7c0.3,1,0.5,2,0.7,2.9h0.1c0.2-0.9,0.5-1.9,0.8-2.9l1.5-4.7h1.4l1.4,4.6
				c0.3,1.1,0.6,2.1,0.8,3h0.1c0.2-0.9,0.4-1.9,0.7-3l1.3-4.6h1.7l-3,9.2h-1.5l-1.4-4.4c-0.3-1-0.6-1.9-0.8-3h0
				c-0.2,1.1-0.5,2.1-0.8,3l-1.5,4.4h-1.5l-2.8-9.2H243.7z"/>
			<path class="st3" d="M267.8,207.1c-0.1-1.8-0.2-3.9-0.2-5.5h-0.1c-0.4,1.5-1,3.1-1.6,4.9l-2.3,6.2h-1.3l-2.1-6.1
				c-0.6-1.8-1.1-3.5-1.5-5h0c0,1.6-0.1,3.7-0.2,5.7l-0.3,5.5h-1.6l0.9-12.8h2.1l2.2,6.2c0.5,1.6,1,3,1.3,4.3h0.1
				c0.3-1.3,0.8-2.7,1.3-4.3l2.3-6.2h2.1l0.8,12.8h-1.6L267.8,207.1z"/>
			<path class="st3" d="M280.7,208.1c0,3.4-2.4,4.9-4.6,4.9c-2.5,0-4.4-1.8-4.4-4.7c0-3.1,2-4.9,4.6-4.9
				C278.9,203.3,280.7,205.3,280.7,208.1z M273.4,208.2c0,2,1.2,3.5,2.8,3.5c1.6,0,2.8-1.5,2.8-3.6c0-1.6-0.8-3.5-2.8-3.5
				S273.4,206.4,273.4,208.2z"/>
			<path class="st3" d="M290.7,199.3v11.1c0,0.8,0,1.7,0.1,2.4h-1.5l-0.1-1.6h0c-0.5,1-1.6,1.8-3.1,1.8c-2.2,0-3.9-1.9-3.9-4.7
				c0-3.1,1.9-4.9,4.1-4.9c1.4,0,2.4,0.7,2.8,1.4h0v-5.5H290.7z M289.1,207.3c0-0.2,0-0.5-0.1-0.7c-0.2-1.1-1.2-1.9-2.4-1.9
				c-1.7,0-2.8,1.5-2.8,3.6c0,1.9,0.9,3.4,2.7,3.4c1.1,0,2.1-0.7,2.5-2c0.1-0.2,0.1-0.5,0.1-0.7V207.3z"/>
			<path class="st3" d="M294.4,208.5c0,2.3,1.5,3.2,3.2,3.2c1.2,0,1.9-0.2,2.5-0.5l0.3,1.2c-0.6,0.3-1.6,0.6-3.1,0.6
				c-2.8,0-4.5-1.9-4.5-4.6s1.6-5,4.3-5c3,0,3.8,2.6,3.8,4.3c0,0.3,0,0.6-0.1,0.8H294.4z M299.3,207.3c0-1.1-0.4-2.7-2.3-2.7
				c-1.7,0-2.4,1.6-2.6,2.7H299.3z"/>
			<path class="st3" d="M303,199.3h1.7v13.5H303V199.3z"/>
		</g>
	</g>
	<g id="dataModel">
		<path class="st2" d="M409.8,223.4H320c-1.7,0-3-1.3-3-3V195c0-1.7,1.3-3,3-3h89.8c1.7,0,3,1.3,3,3v25.4
			C412.8,222,411.4,223.4,409.8,223.4z"/>
		<g>
			<path class="st3" d="M330.6,199.3v11.1c0,0.8,0,1.7,0.1,2.4h-1.5l-0.1-1.6h0c-0.5,1-1.6,1.8-3.1,1.8c-2.2,0-3.9-1.9-3.9-4.7
				c0-3.1,1.9-4.9,4.1-4.9c1.4,0,2.4,0.7,2.8,1.4h0v-5.5H330.6z M328.9,207.3c0-0.2,0-0.5-0.1-0.7c-0.2-1.1-1.2-1.9-2.4-1.9
				c-1.7,0-2.8,1.5-2.8,3.6c0,1.9,0.9,3.4,2.7,3.4c1.1,0,2.1-0.7,2.5-2c0.1-0.2,0.1-0.5,0.1-0.7V207.3z"/>
			<path class="st3" d="M338.5,212.7l-0.1-1.2h-0.1c-0.5,0.7-1.5,1.4-2.8,1.4c-1.9,0-2.8-1.3-2.8-2.6c0-2.2,2-3.4,5.5-3.4v-0.2
				c0-0.8-0.2-2.1-2.1-2.1c-0.9,0-1.7,0.3-2.4,0.7l-0.4-1.1c0.8-0.5,1.9-0.8,3-0.8c2.8,0,3.5,1.9,3.5,3.8v3.4c0,0.8,0,1.6,0.2,2.2
				H338.5z M338.2,208.1c-1.8,0-3.9,0.3-3.9,2.1c0,1.1,0.7,1.6,1.6,1.6c1.2,0,2-0.8,2.2-1.5c0.1-0.2,0.1-0.4,0.1-0.5V208.1z"/>
			<path class="st3" d="M344.5,200.9v2.6h2.4v1.3h-2.4v5c0,1.1,0.3,1.8,1.3,1.8c0.4,0,0.8-0.1,1-0.1l0.1,1.3
				c-0.3,0.1-0.8,0.2-1.5,0.2c-0.8,0-1.4-0.2-1.8-0.7c-0.5-0.5-0.6-1.3-0.6-2.4v-5h-1.4v-1.3h1.4v-2.2L344.5,200.9z"/>
			<path class="st3" d="M353.8,212.7l-0.1-1.2h-0.1c-0.5,0.7-1.5,1.4-2.8,1.4c-1.9,0-2.8-1.3-2.8-2.6c0-2.2,2-3.4,5.5-3.4v-0.2
				c0-0.8-0.2-2.1-2.1-2.1c-0.9,0-1.7,0.3-2.4,0.7l-0.4-1.1c0.8-0.5,1.9-0.8,3-0.8c2.8,0,3.5,1.9,3.5,3.8v3.4c0,0.8,0,1.6,0.2,2.2
				H353.8z M353.6,208.1c-1.8,0-3.9,0.3-3.9,2.1c0,1.1,0.7,1.6,1.6,1.6c1.2,0,2-0.8,2.2-1.5c0.1-0.2,0.1-0.4,0.1-0.5V208.1z"/>
			<path class="st3" d="M368.8,207.1c-0.1-1.8-0.2-3.9-0.2-5.5h-0.1c-0.4,1.5-1,3.1-1.6,4.9l-2.3,6.2h-1.3l-2.1-6.1
				c-0.6-1.8-1.1-3.5-1.5-5h0c0,1.6-0.1,3.7-0.2,5.7l-0.3,5.5h-1.6l0.9-12.8h2.1l2.2,6.2c0.5,1.6,1,3,1.3,4.3h0.1
				c0.3-1.3,0.8-2.7,1.3-4.3l2.3-6.2h2.1l0.8,12.8h-1.6L368.8,207.1z"/>
			<path class="st3" d="M381.6,208.1c0,3.4-2.4,4.9-4.6,4.9c-2.5,0-4.4-1.8-4.4-4.7c0-3.1,2-4.9,4.6-4.9
				C379.8,203.3,381.6,205.3,381.6,208.1z M374.3,208.2c0,2,1.2,3.5,2.8,3.5c1.6,0,2.8-1.5,2.8-3.6c0-1.6-0.8-3.5-2.8-3.5
				S374.3,206.4,374.3,208.2z"/>
			<path class="st3" d="M391.7,199.3v11.1c0,0.8,0,1.7,0.1,2.4h-1.5l-0.1-1.6h0c-0.5,1-1.6,1.8-3.1,1.8c-2.2,0-3.9-1.9-3.9-4.7
				c0-3.1,1.9-4.9,4.1-4.9c1.4,0,2.4,0.7,2.8,1.4h0v-5.5H391.7z M390,207.3c0-0.2,0-0.5-0.1-0.7c-0.2-1.1-1.2-1.9-2.4-1.9
				c-1.7,0-2.8,1.5-2.8,3.6c0,1.9,0.9,3.4,2.7,3.4c1.1,0,2.1-0.7,2.5-2c0.1-0.2,0.1-0.5,0.1-0.7V207.3z"/>
			<path class="st3" d="M395.4,208.5c0,2.3,1.5,3.2,3.2,3.2c1.2,0,1.9-0.2,2.5-0.5l0.3,1.2c-0.6,0.3-1.6,0.6-3.1,0.6
				c-2.8,0-4.5-1.9-4.5-4.6s1.6-5,4.3-5c3,0,3.8,2.6,3.8,4.3c0,0.3,0,0.6-0.1,0.8H395.4z M400.3,207.3c0-1.1-0.4-2.7-2.3-2.7
				c-1.7,0-2.4,1.6-2.6,2.7H400.3z"/>
			<path class="st3" d="M404,199.3h1.7v13.5H404V199.3z"/>
		</g>
	</g>
	<g id="namespace">
	</g>
	<g id="router">
		<path class="st2" d="M271.5,261.5h-54.3c-1.7,0-3-1.3-3-3v-25.4c0-1.7,1.3-3,3-3h54.3c1.7,0,3,1.3,3,3v25.4
			C274.5,260.1,273.2,261.5,271.5,261.5z"/>
		<g>
			<path class="st3" d="M219.9,244.5c0-1.1,0-2-0.1-2.9h1.5l0.1,1.8h0.1c0.4-1.2,1.4-2,2.5-2c0.2,0,0.3,0,0.5,0.1v1.6
				c-0.2,0-0.3-0.1-0.6-0.1c-1.2,0-2,0.9-2.2,2.1c0,0.2-0.1,0.5-0.1,0.8v4.9h-1.7V244.5z"/>
			<path class="st3" d="M234.2,246.2c0,3.4-2.4,4.9-4.6,4.9c-2.5,0-4.4-1.8-4.4-4.7c0-3.1,2-4.9,4.6-4.9
				C232.4,241.5,234.2,243.4,234.2,246.2z M226.9,246.3c0,2,1.2,3.5,2.8,3.5c1.6,0,2.8-1.5,2.8-3.6c0-1.6-0.8-3.5-2.8-3.5
				S226.9,244.5,226.9,246.3z"/>
			<path class="st3" d="M244,248.3c0,1,0,1.8,0.1,2.5h-1.5l-0.1-1.5h0c-0.4,0.7-1.4,1.7-3,1.7c-1.4,0-3.2-0.8-3.2-4v-5.4h1.7v5.1
				c0,1.7,0.5,2.9,2.1,2.9c1.1,0,1.9-0.8,2.2-1.5c0.1-0.2,0.2-0.6,0.2-0.9v-5.6h1.7V248.3z"/>
			<path class="st3" d="M248.8,239v2.6h2.4v1.3h-2.4v5c0,1.1,0.3,1.8,1.3,1.8c0.4,0,0.8-0.1,1-0.1l0.1,1.3c-0.3,0.1-0.8,0.2-1.5,0.2
				c-0.8,0-1.4-0.2-1.8-0.7c-0.5-0.5-0.6-1.3-0.6-2.4v-5h-1.4v-1.3h1.4v-2.2L248.8,239z"/>
			<path class="st3" d="M253.9,246.6c0,2.3,1.5,3.2,3.2,3.2c1.2,0,1.9-0.2,2.5-0.5l0.3,1.2c-0.6,0.3-1.6,0.6-3.1,0.6
				c-2.8,0-4.5-1.9-4.5-4.6s1.6-5,4.3-5c3,0,3.8,2.6,3.8,4.3c0,0.3,0,0.6-0.1,0.8H253.9z M258.8,245.4c0-1.1-0.4-2.7-2.3-2.7
				c-1.7,0-2.4,1.6-2.6,2.7H258.8z"/>
			<path class="st3" d="M262.5,244.5c0-1.1,0-2-0.1-2.9h1.5l0.1,1.8h0.1c0.4-1.2,1.4-2,2.5-2c0.2,0,0.3,0,0.5,0.1v1.6
				c-0.2,0-0.3-0.1-0.6-0.1c-1.2,0-2,0.9-2.2,2.1c0,0.2-0.1,0.5-0.1,0.8v4.9h-1.7V244.5z"/>
		</g>
	</g>
	<g>
	</g>
	<g>
	</g>
	<g>
	</g>
	<g>
	</g>
	<g>
	</g>
	<g>
	</g>
	<g>
	</g>
	<g>
	</g>
	<g>
	</g>
	<g>
	</g>
	<g>
	</g>
	<g>
	</g>
	<g>
	</g>
	<g>
	</g>
	<g>
	</g>
	<g>
	</g>
	<g>
	</g>
</g>
</svg>
