<?xml version="1.0" encoding="utf-8"?>
<!-- Generator: Adobe Illustrator 17.1.0, SVG Export Plug-In . SVG Version: 6.00 Build 0)  -->
<!DOCTYPE svg PUBLIC "-//W3C//DTD SVG 1.1//EN" "http://www.w3.org/Graphics/SVG/1.1/DTD/svg11.dtd">
<svg version="1.1" id="Layer_1" xmlns="http://www.w3.org/2000/svg" xmlns:xlink="http://www.w3.org/1999/xlink" x="0px" y="0px"
	 viewBox="0 0 120 147" enable-background="new 0 0 120 147" xml:space="preserve">
<g>
	<g>
		<path fill="none" d="M119.5,146.4c-39.7,0-79.4,0-119.2,0c0-48.7,0-97.4,0-146.1c39.7,0,79.4,0,119.2,0
			C119.5,49,119.5,97.7,119.5,146.4z M101.9,80.9c0-5.5-1-9.9-2.7-14.2c-2.9-7.3-7.4-13.6-12.7-19.3c-4-4.3-8.2-8.3-13.8-10.6
			c-4.1-1.7-8.2-1.8-12.2,0.4c-3.3,1.8-5.7,4.7-7.5,8c-2.9,5.2-2.7,10.7-1.9,16.3c0.8,5.3,2.1,10.5,1.7,16
			c-0.6,7.9-4.3,14-10.8,18.4c-3.8,2.6-8.3,3.4-12.8,4.2c-4.5,0.8-9,1.3-13.1,3.3c-7.1,3.4-11.7,9.1-14.4,16.3
			c-1.6,4.2-1.2,8.5,0.8,12.6c2.2,4.3,5.5,7.6,9.3,10.4c2.7,2,5.7,3,9,3.1c7.3,0.3,13.3-2.6,18-7.9c6.2-7.1,13.2-13.1,21.7-17.2
			c4.4-2.1,8.9-4.1,13.3-6.2c8.5-3.9,15.8-9.4,21.6-16.8C99.5,92.5,101.9,86.7,101.9,80.9z M71.2,19c-0.2,7.1,4.6,10.9,11,8.7
			C89.6,25.1,95.5,14.5,93.7,7c-1.2-5-5.6-7.3-10.4-5.5C76.5,4,71.4,11.4,71.2,19z M106.3,28.8c0.3-6.3-3.1-9.1-7.8-7.7
			c-4.7,1.4-9.1,7.9-8.6,12.8c0.4,4.9,4.3,7.3,8.8,5.1C103.3,36.6,105.8,32.6,106.3,28.8z M115.4,41.3c0-3.4-2.3-5.3-5.6-4.6
			c-4.3,0.8-8.4,5.7-8.4,10.1c0,3.5,2.4,5.4,5.7,4.7C111.3,50.6,115.4,45.6,115.4,41.3z M111,61.9c3.3,0,7-3,7.9-6.3
			c0.7-2.8-0.9-4.9-3.8-4.9c-3.4,0-7.2,3-8,6.4C106.5,59.8,108.1,61.9,111,61.9z M109.1,69.6c0,2.3,1.6,3.6,3.8,3.1
			c2.7-0.7,5.1-3.6,5.2-6.3c0.1-2.3-1.5-3.7-3.7-3.3C111.5,63.6,109,66.7,109.1,69.6z"/>
		<path fill="#333333" d="M101.9,80.9c-0.1,5.8-2.4,11.6-6.4,16.7c-5.8,7.5-13.1,12.9-21.6,16.8c-4.4,2.1-8.9,4.1-13.3,6.2
			c-8.6,4.1-15.5,10.1-21.7,17.2c-4.7,5.3-10.7,8.2-18,7.9c-3.3-0.1-6.3-1.2-9-3.1c-3.8-2.8-7.1-6.1-9.3-10.4
			c-2.1-4.1-2.5-8.3-0.8-12.6c2.7-7.2,7.3-13,14.4-16.3c4.1-2,8.7-2.5,13.1-3.3c4.5-0.8,9-1.5,12.8-4.2c6.5-4.4,10.2-10.6,10.8-18.4
			c0.4-5.4-0.9-10.7-1.7-16c-0.8-5.6-1-11.1,1.9-16.3c1.8-3.3,4.2-6.1,7.5-8c4-2.2,8.1-2.1,12.2-0.4c5.6,2.3,9.8,6.3,13.8,10.6
			c5.3,5.7,9.8,12,12.7,19.3C100.9,71,101.9,75.5,101.9,80.9z"/>
		<path d="M71.2,19C71.4,11.4,76.5,4,83.3,1.5C88.1-0.3,92.5,2,93.7,7c1.8,7.5-4.1,18.1-11.5,20.7C75.8,29.9,71,26.1,71.2,19z"/>
		<path d="M106.3,28.8c-0.5,3.9-3,7.8-7.7,10.1c-4.5,2.2-8.3-0.1-8.8-5.1c-0.4-4.9,3.9-11.4,8.6-12.8
			C103.2,19.7,106.6,22.4,106.3,28.8z"/>
		<path d="M115.4,41.3c0,4.4-4,9.4-8.3,10.2c-3.4,0.7-5.7-1.3-5.7-4.7c0-4.4,4.1-9.3,8.4-10.1C113.1,36,115.4,37.8,115.4,41.3z"/>
		<path d="M111,61.9c-2.9,0-4.5-2-3.9-4.8c0.8-3.4,4.6-6.4,8-6.4c2.9,0,4.5,2.1,3.8,4.9C118.1,58.9,114.4,61.9,111,61.9z"/>
		<path d="M109.1,69.6c0-2.9,2.5-6,5.3-6.5c2.3-0.4,3.9,1,3.7,3.3c-0.1,2.8-2.5,5.7-5.2,6.3C110.7,73.2,109.1,71.9,109.1,69.6z"/>
	</g>
</g>
</svg>
